<?xml version="1.0" encoding="UTF-8" standalone="no"?>
<!-- Created with Inkscape (http://www.inkscape.org/) -->

<svg
   version="1.1"
   id="svg2"
   width="153.10303"
   height="119.11279"
   viewBox="0 0 153.10303 119.11279"
   sodipodi:docname="declination arrow.svg"
   inkscape:version="1.2.2 (732a01da63, 2022-12-09)"
   xmlns:inkscape="http://www.inkscape.org/namespaces/inkscape"
   xmlns:sodipodi="http://sodipodi.sourceforge.net/DTD/sodipodi-0.dtd"
   xmlns="http://www.w3.org/2000/svg"
   xmlns:svg="http://www.w3.org/2000/svg">
  <sodipodi:namedview
     id="namedview79"
     pagecolor="#ffffff"
     bordercolor="#000000"
     borderopacity="0.25"
     inkscape:showpageshadow="2"
     inkscape:pageopacity="0.0"
     inkscape:pagecheckerboard="0"
     inkscape:deskcolor="#d1d1d1"
     showgrid="false"
     inkscape:zoom="2.4606573"
     inkscape:cx="41.452339"
     inkscape:cy="61.16252"
     inkscape:window-width="1914"
     inkscape:window-height="958"
     inkscape:window-x="-5"
     inkscape:window-y="40"
     inkscape:window-maximized="0"
     inkscape:current-layer="svg2" />
  <defs
     id="defs6">
    <clipPath
       clipPathUnits="userSpaceOnUse"
       id="clipPath197481">
      <g
         id="g197491">
        <g
           id="g197489">
          <g
             id="g197487">
            <g
               id="g197485">
              <path
                 d="M -18.255126,20.036114 H 9581.7449 V 11620.036 H -18.255126 Z"
                 id="path197483" />
            </g>
          </g>
        </g>
      </g>
    </clipPath>
    <clipPath
       clipPathUnits="userSpaceOnUse"
       id="clipPath197527">
      <g
         id="g197537">
        <g
           id="g197535">
          <g
             id="g197533">
            <g
               id="g197531">
              <path
                 d="M -18.255126,20.036114 H 9581.7449 V 11620.036 H -18.255126 Z"
                 id="path197529" />
            </g>
          </g>
        </g>
      </g>
    </clipPath>
    <clipPath
       clipPathUnits="userSpaceOnUse"
       id="clipPath197550">
      <g
         id="g197560">
        <g
           id="g197558">
          <g
             id="g197556">
            <g
               id="g197554">
              <path
                 d="M -18.255126,20.036114 H 9581.7449 V 11620.036 H -18.255126 Z"
                 id="path197552" />
            </g>
          </g>
        </g>
      </g>
    </clipPath>
    <clipPath
       clipPathUnits="userSpaceOnUse"
       id="clipPath197599">
      <g
         id="g197609">
        <g
           id="g197607">
          <g
             id="g197605">
            <g
               id="g197603">
              <path
                 d="M -18.255126,20.036114 H 9581.7449 V 11620.036 H -18.255126 Z"
                 id="path197601" />
            </g>
          </g>
        </g>
      </g>
    </clipPath>
    <clipPath
       clipPathUnits="userSpaceOnUse"
       id="clipPath198545">
      <g
         id="g198555">
        <g
           id="g198553">
          <g
             id="g198551">
            <g
               id="g198549">
              <path
                 d="M -18.255126,20.036114 H 9581.7449 V 11620.036 H -18.255126 Z"
                 id="path198547" />
            </g>
          </g>
        </g>
      </g>
    </clipPath>
    <clipPath
       clipPathUnits="userSpaceOnUse"
       id="clipPath198568">
      <g
         id="g198578">
        <g
           id="g198576">
          <g
             id="g198574">
            <g
               id="g198572">
              <path
                 d="M -18.255126,20.036114 H 9581.7449 V 11620.036 H -18.255126 Z"
                 id="path198570" />
            </g>
          </g>
        </g>
      </g>
    </clipPath>
    <clipPath
       clipPathUnits="userSpaceOnUse"
       id="clipPath198591">
      <g
         id="g198601">
        <g
           id="g198599">
          <g
             id="g198597">
            <g
               id="g198595">
              <path
                 d="M -18.255126,20.036114 H 9581.7449 V 11620.036 H -18.255126 Z"
                 id="path198593" />
            </g>
          </g>
        </g>
      </g>
    </clipPath>
    <clipPath
       clipPathUnits="userSpaceOnUse"
       id="clipPath198673">
      <g
         id="g198683">
        <g
           id="g198681">
          <g
             id="g198679">
            <g
               id="g198677">
              <path
                 d="M -18.255126,20.036114 H 9581.7449 V 11620.036 H -18.255126 Z"
                 id="path198675" />
            </g>
          </g>
        </g>
      </g>
    </clipPath>
    <clipPath
       clipPathUnits="userSpaceOnUse"
       id="clipPath198696">
      <g
         id="g198706">
        <g
           id="g198704">
          <g
             id="g198702">
            <g
               id="g198700">
              <path
                 d="M -18.255126,20.036114 H 9581.7449 V 11620.036 H -18.255126 Z"
                 id="path198698" />
            </g>
          </g>
        </g>
      </g>
    </clipPath>
  </defs>
  <g
     id="g10"
     transform="matrix(1.3333333,0,0,-1.3333333,-661.10059,267.53052)">
    <path
       d="m 553.24487,124.13611 1.1,45.3"
       style="fill:none;stroke:#000000;stroke-width:0.283;stroke-linecap:butt;stroke-linejoin:miter;stroke-miterlimit:10;stroke-dasharray:none;stroke-opacity:1"
       id="path190618"
       clip-path="url(#clipPath198568)" />
    <path
       d="m 553.24487,124.13611 3.3,63.3"
       style="fill:none;stroke:#000000;stroke-width:0.283;stroke-linecap:butt;stroke-linejoin:miter;stroke-miterlimit:10;stroke-dasharray:none;stroke-opacity:1"
       id="path190624"
       clip-path="url(#clipPath198591)" />
    <path
       d="m 553.24487,124.13611 v 72"
       style="fill:none;stroke:#000000;stroke-width:0.283;stroke-linecap:butt;stroke-linejoin:miter;stroke-miterlimit:10;stroke-dasharray:none;stroke-opacity:1"
       id="path190630"
       clip-path="url(#clipPath197599)" />
    <path
       d="m 554.90928,187.68366 c 0.13796,-0.004 0.24699,-0.1185 0.24337,-0.25646 -0.004,-0.13795 -0.1185,-0.24698 -0.25645,-0.24337 -0.13796,0.004 -0.24699,0.11851 -0.24337,0.25646 0.004,0.13795 0.1185,0.24698 0.25645,0.24337 z"
       style="fill:#000000;fill-opacity:1;fill-rule:evenodd;stroke:none"
       id="path190636"
       clip-path="url(#clipPath197481)" />
    <path
       d="m 553.7821,169.72052 c 0.13799,-0.002 0.24866,-0.11494 0.24704,-0.25293 -0.002,-0.13799 -0.11494,-0.24867 -0.25293,-0.24704 -0.13799,0.002 -0.24866,0.11494 -0.24704,0.25293 0.002,0.13799 0.11494,0.24866 0.25293,0.24704 z"
       style="fill:#000000;fill-opacity:1;fill-rule:evenodd;stroke:none"
       id="path190642"
       clip-path="url(#clipPath197550)" />
    <path
       d="m 547.84487,152.93611 h -36"
       style="fill:none;stroke:#000000;stroke-width:0.283;stroke-linecap:butt;stroke-linejoin:miter;stroke-miterlimit:10;stroke-dasharray:none;stroke-opacity:1"
       id="path190648"
       clip-path="url(#clipPath197527)" />
    <path
       d="m 560.74487,167.33611 h 36"
       style="fill:none;stroke:#000000;stroke-width:0.283;stroke-linecap:butt;stroke-linejoin:miter;stroke-miterlimit:10;stroke-dasharray:none;stroke-opacity:1"
       id="path190654"
       clip-path="url(#clipPath198545)" />
    <path
       d="m 556.53808,187.85588 0.36197,-0.10246 c 0,0 0.86678,-7.99331 3.9373,-14.39899 0,0 -2.41416,2.6812 -4.947,3.09779 0,0 0.59341,11.32302 0.59341,11.32302 z"
       style="fill:#000000;fill-opacity:1;fill-rule:evenodd;stroke:none;stroke-width:1.66744"
       id="path190660"
       clip-path="url(#clipPath198696)" />
    <path
       d="m 554.80314,195.90531 -1.55827,1.15176 -1.55826,-1.15176 0.60975,1.89702 -1.55826,1.15176 h 1.96477 l 0.542,1.69377 0.54201,-1.69377 h 1.96477 l -1.55827,-1.15176 z"
       style="fill:#000000;fill-opacity:1;fill-rule:evenodd;stroke:none;stroke-width:0.677507"
       id="path190666"
       clip-path="url(#clipPath198673)" />
    <g
       aria-label="GN"
       transform="matrix(0.99972147,-0.02360051,-0.02360051,-0.99972147,0,0)"
       id="text190674"
       style="font-size:5.99974px;font-family:Arial;-inkscape-font-specification:Arial-BoldMT;stroke-width:0.999979">
      <path
         d="m 548.13203,-188.33464 v -0.50389 l 1.81926,-0.003 v 1.59368 q -0.41893,0.33397 -0.86422,0.50389 -0.44529,0.16698 -0.91402,0.16698 -0.63279,0 -1.15132,-0.26952 -0.5156,-0.27245 -0.77926,-0.78512 -0.26366,-0.51267 -0.26366,-1.14546 0,-0.62692 0.26073,-1.16889 0.26366,-0.5449 0.75582,-0.80856 0.49217,-0.26366 1.13374,-0.26366 0.4658,0 0.84079,0.15234 0.37791,0.1494 0.59177,0.41892 0.21386,0.26952 0.32518,0.7031 l -0.51267,0.14062 q -0.0967,-0.32811 -0.24023,-0.51561 -0.14354,-0.18749 -0.41013,-0.29881 -0.26659,-0.11425 -0.59178,-0.11425 -0.38963,0 -0.67379,0.12011 -0.28417,0.11718 -0.45995,0.31053 -0.17284,0.19335 -0.26952,0.42479 -0.16405,0.39842 -0.16405,0.86422 0,0.57419 0.19628,0.96089 0.19921,0.38671 0.57712,0.5742 0.37792,0.18749 0.8027,0.18749 0.36913,0 0.72067,-0.14062 0.35155,-0.14355 0.53318,-0.30467 v -0.79977 z"
         id="path308" />
      <path
         d="m 550.78434,-186.65015 v -4.29473 h 0.58299 l 2.25576,3.37192 v -3.37192 h 0.5449 v 4.29473 H 553.585 l -2.25576,-3.37485 v 3.37485 z"
         id="path310" />
    </g>
    <g
       aria-label="MN"
       transform="matrix(0.99915922,-0.04099833,-0.04099833,-0.99915922,0,0)"
       id="text190678"
       style="font-size:6.00049px;font-family:Arial;-inkscape-font-specification:Arial-BoldMT;stroke-width:1.00004">
      <path
         d="m 544.20646,-212.76169 v -4.29527 h 0.85554 l 1.01668,3.04126 q 0.14064,0.42484 0.2051,0.6358 0.0732,-0.2344 0.22853,-0.68854 l 1.0284,-2.98852 h 0.76471 v 4.29527 h -0.54789 v -3.59502 l -1.24815,3.59502 h -0.51274 l -1.24229,-3.65655 v 3.65655 z"
         id="path313" />
      <path
         d="m 549.21659,-212.76169 v -4.29527 h 0.58306 l 2.25604,3.37234 v -3.37234 h 0.54497 v 4.29527 h -0.58306 l -2.25604,-3.37527 v 3.37527 z"
         id="path315" />
    </g>
    <g
       aria-label="1°21´24 MILS2°21´42 MILSUTM GRID AND 2025 MAGNETIC NORTHDECLINATION AT CENTER OF SHEET"
       transform="scale(1,-1)"
       id="text190692"
       style="font-size:6px;font-family:Arial;-inkscape-font-specification:Arial-BoldMT">
      <path
         d="m 524.8761,-154.35661 h -0.52735 v -3.36035 q -0.19042,0.18164 -0.50097,0.36328 -0.30762,0.18164 -0.55371,0.27246 v -0.50977 q 0.44238,-0.20801 0.77343,-0.5039 0.33106,-0.2959 0.46875,-0.57422 h 0.33985 z"
         id="path318" />
      <path
         d="m 526.35175,-157.91325 q 0,-0.33692 0.2373,-0.57422 0.24023,-0.23731 0.57422,-0.23731 0.33984,0 0.57715,0.23731 0.2373,0.2373 0.2373,0.57422 0,0.33691 -0.24023,0.57714 -0.23731,0.23731 -0.57422,0.23731 -0.33399,0 -0.57422,-0.23731 -0.2373,-0.2373 -0.2373,-0.57714 z m 0.31933,0 q 0,0.20507 0.14356,0.35156 0.14648,0.14355 0.35156,0.14355 0.20215,0 0.3457,-0.14355 0.14649,-0.14649 0.14649,-0.35156 0,-0.20508 -0.14649,-0.34864 -0.14355,-0.14648 -0.3457,-0.14648 -0.20508,0 -0.35156,0.14648 -0.14356,0.14356 -0.14356,0.34864 z"
         id="path320" />
      <path
         d="m 531.39728,-154.86345 v 0.50684 h -2.83887 q -0.006,-0.19043 0.0615,-0.36621 0.1084,-0.29004 0.34571,-0.57129 0.24023,-0.28125 0.6914,-0.65039 0.7002,-0.57422 0.94629,-0.90821 0.2461,-0.33691 0.2461,-0.63574 0,-0.31348 -0.22559,-0.52734 -0.22266,-0.2168 -0.58301,-0.2168 -0.38086,0 -0.60937,0.22852 -0.22852,0.22851 -0.23145,0.63281 l -0.54199,-0.0557 q 0.0557,-0.60644 0.41895,-0.92285 0.36328,-0.31933 0.97558,-0.31933 0.61817,0 0.97852,0.34277 0.36035,0.34277 0.36035,0.84961 0,0.25781 -0.10547,0.50684 -0.10547,0.24902 -0.35156,0.52441 -0.24317,0.27539 -0.81153,0.75586 -0.47461,0.39844 -0.60937,0.54199 -0.13477,0.14063 -0.22266,0.28418 z"
         id="path322" />
      <path
         d="m 533.94812,-154.35661 h -0.52734 v -3.36035 q -0.19043,0.18164 -0.50098,0.36328 -0.30762,0.18164 -0.55371,0.27246 v -0.50977 q 0.44238,-0.20801 0.77344,-0.5039 0.33105,-0.2959 0.46875,-0.57422 h 0.33984 z"
         id="path324" />
      <path
         d="m 535.69916,-157.85466 0.38965,-0.82031 h 0.6914 l -0.64453,0.82031 z"
         id="path326" />
      <path
         d="m 521.5293,-147.99144 v 0.50684 h -2.83887 q -0.006,-0.19043 0.0615,-0.36621 0.1084,-0.29004 0.34571,-0.57129 0.24023,-0.28125 0.6914,-0.65039 0.7002,-0.57422 0.94629,-0.90821 0.2461,-0.33691 0.2461,-0.63574 0,-0.31348 -0.22559,-0.52734 -0.22266,-0.2168 -0.58301,-0.2168 -0.38086,0 -0.60937,0.22852 -0.22852,0.22851 -0.23145,0.63281 l -0.54199,-0.0557 q 0.0557,-0.60644 0.41894,-0.92285 0.36329,-0.31933 0.97559,-0.31933 0.61816,0 0.97852,0.34277 0.36035,0.34277 0.36035,0.84961 0,0.25781 -0.10547,0.50683 -0.10547,0.24903 -0.35156,0.52442 -0.24317,0.27539 -0.81153,0.75586 -0.47461,0.39844 -0.60937,0.54199 -0.13477,0.14063 -0.22266,0.28418 z"
         id="path328" />
      <path
         d="m 523.78424,-147.4846 v -1.02832 h -1.86328 v -0.4834 l 1.95996,-2.78321 h 0.43066 v 2.78321 h 0.58008 v 0.4834 h -0.58008 v 1.02832 z m 0,-1.51172 v -1.93653 l -1.34473,1.93653 z"
         id="path330" />
      <path
         d="m 527.29407,-147.4846 v -4.29493 h 0.85547 l 1.0166,3.04102 q 0.14062,0.4248 0.20508,0.63574 0.0732,-0.23437 0.22851,-0.68847 l 1.02832,-2.98829 h 0.76465 v 4.29493 h -0.54785 v -3.59473 l -1.24805,3.59473 h -0.51269 l -1.24219,-3.65625 v 3.65625 z"
         id="path332" />
      <path
         d="m 532.40631,-147.4846 v -4.29493 h 0.56836 v 4.29493 z"
         id="path334" />
      <path
         d="m 533.95422,-147.4846 v -4.29493 h 0.56836 v 3.78809 h 2.11524 v 0.50684 z"
         id="path336" />
      <path
         d="m 537.45032,-148.86449 0.53613,-0.0469 q 0.0381,0.32226 0.17578,0.53027 0.14063,0.20508 0.4336,0.33399 0.29296,0.12597 0.65917,0.12597 0.3252,0 0.57422,-0.0967 0.24903,-0.0967 0.36914,-0.26367 0.12305,-0.16992 0.12305,-0.36914 0,-0.20215 -0.11719,-0.35156 -0.11718,-0.15235 -0.38672,-0.25488 -0.17285,-0.0674 -0.76464,-0.20801 -0.5918,-0.14356 -0.82911,-0.26953 -0.30761,-0.16114 -0.45996,-0.39844 -0.14941,-0.24024 -0.14941,-0.53613 0,-0.3252 0.18457,-0.60645 0.18457,-0.28418 0.53906,-0.43066 0.35449,-0.14649 0.78809,-0.14649 0.47754,0 0.84082,0.15528 0.36621,0.15234 0.5625,0.45117 0.19629,0.29883 0.21094,0.67676 l -0.54493,0.041 q -0.0439,-0.40723 -0.29882,-0.61523 -0.25196,-0.20801 -0.74707,-0.20801 -0.51563,0 -0.75293,0.19043 -0.23438,0.1875 -0.23438,0.4541 0,0.23145 0.16699,0.38086 0.16407,0.14941 0.85547,0.30762 0.69434,0.15527 0.95215,0.27246 0.375,0.17285 0.55371,0.43945 0.17871,0.26367 0.17871,0.60938 0,0.34277 -0.19629,0.64746 -0.19629,0.30175 -0.56543,0.47168 -0.36621,0.16699 -0.82617,0.16699 -0.58301,0 -0.97851,-0.16992 -0.39258,-0.16993 -0.61817,-0.50977 -0.22265,-0.34277 -0.23437,-0.77344 z"
         id="path338" />
      <path
         d="m 574.5343,-169.26344 v 0.50683 h -2.83887 q -0.006,-0.19043 0.0615,-0.36621 0.1084,-0.29004 0.3457,-0.57129 0.24024,-0.28125 0.69141,-0.65039 0.70019,-0.57422 0.94629,-0.9082 0.24609,-0.33691 0.24609,-0.63574 0,-0.31348 -0.22559,-0.52735 -0.22265,-0.21679 -0.583,-0.21679 -0.38086,0 -0.60938,0.22851 -0.22851,0.22852 -0.23144,0.63281 l -0.542,-0.0557 q 0.0557,-0.60644 0.41895,-0.92285 0.36328,-0.31934 0.97559,-0.31934 0.61816,0 0.97851,0.34278 0.36035,0.34277 0.36035,0.84961 0,0.25781 -0.10547,0.50683 -0.10547,0.24903 -0.35156,0.52442 -0.24316,0.27539 -0.81152,0.75586 -0.47461,0.39843 -0.60938,0.54199 -0.13476,0.14062 -0.22265,0.28418 z"
         id="path340" />
      <path
         d="m 575.22479,-172.31325 q 0,-0.33691 0.23731,-0.57422 0.24023,-0.2373 0.57422,-0.2373 0.33984,0 0.57714,0.2373 0.23731,0.23731 0.23731,0.57422 0,0.33692 -0.24024,0.57715 -0.2373,0.23731 -0.57421,0.23731 -0.33399,0 -0.57422,-0.23731 -0.23731,-0.2373 -0.23731,-0.57715 z m 0.31934,0 q 0,0.20508 0.14355,0.35156 0.14649,0.14356 0.35157,0.14356 0.20214,0 0.3457,-0.14356 0.14648,-0.14648 0.14648,-0.35156 0,-0.20508 -0.14648,-0.34863 -0.14356,-0.14648 -0.3457,-0.14648 -0.20508,0 -0.35157,0.14648 -0.14355,0.14355 -0.14355,0.34863 z"
         id="path342" />
      <path
         d="m 580.27026,-169.26344 v 0.50683 h -2.83886 q -0.006,-0.19043 0.0615,-0.36621 0.1084,-0.29004 0.3457,-0.57129 0.24024,-0.28125 0.69141,-0.65039 0.70019,-0.57422 0.94629,-0.9082 0.24609,-0.33691 0.24609,-0.63574 0,-0.31348 -0.22558,-0.52735 -0.22266,-0.21679 -0.58301,-0.21679 -0.38086,0 -0.60938,0.22851 -0.22851,0.22852 -0.23144,0.63281 l -0.54199,-0.0557 q 0.0557,-0.60644 0.41894,-0.92285 0.36328,-0.31934 0.97559,-0.31934 0.61816,0 0.97851,0.34278 0.36035,0.34277 0.36035,0.84961 0,0.25781 -0.10546,0.50683 -0.10547,0.24903 -0.35157,0.52442 -0.24316,0.27539 -0.81152,0.75586 -0.47461,0.39843 -0.60938,0.54199 -0.13476,0.14062 -0.22265,0.28418 z"
         id="path344" />
      <path
         d="m 582.82111,-168.75661 h -0.52735 v -3.36035 q -0.19043,0.18164 -0.50097,0.36328 -0.30762,0.18164 -0.55372,0.27246 v -0.50976 q 0.44239,-0.20801 0.77344,-0.50391 0.33106,-0.2959 0.46875,-0.57422 h 0.33985 z"
         id="path346" />
      <path
         d="m 584.57214,-172.25465 0.38965,-0.82032 h 0.69141 l -0.64453,0.82032 z"
         id="path348" />
      <path
         d="m 569.32123,-161.88461 v -1.02832 h -1.86328 v -0.4834 l 1.95996,-2.7832 h 0.43066 v 2.7832 h 0.58008 v 0.4834 h -0.58008 v 1.02832 z m 0,-1.51172 v -1.93653 l -1.34473,1.93653 z"
         id="path350" />
      <path
         d="m 573.73828,-162.39145 v 0.50684 h -2.83887 q -0.006,-0.19043 0.0615,-0.36621 0.1084,-0.29004 0.3457,-0.57129 0.24023,-0.28125 0.69141,-0.65039 0.70019,-0.57422 0.94629,-0.90821 0.24609,-0.33691 0.24609,-0.63574 0,-0.31348 -0.22559,-0.52734 -0.22265,-0.2168 -0.583,-0.2168 -0.38086,0 -0.60938,0.22852 -0.22851,0.22851 -0.23144,0.63281 l -0.542,-0.0557 q 0.0557,-0.60644 0.41895,-0.92285 0.36328,-0.31933 0.97558,-0.31933 0.61817,0 0.97852,0.34277 0.36035,0.34277 0.36035,0.84961 0,0.25781 -0.10547,0.50684 -0.10547,0.24902 -0.35156,0.52441 -0.24316,0.27539 -0.81152,0.75586 -0.47461,0.39844 -0.60938,0.54199 -0.13476,0.14063 -0.22265,0.28418 z"
         id="path352" />
      <path
         d="m 576.16711,-161.88461 v -4.29492 h 0.85547 l 1.0166,3.04101 q 0.14063,0.42481 0.20508,0.63574 0.0732,-0.23437 0.22852,-0.68847 l 1.02832,-2.98828 h 0.76465 v 4.29492 h -0.54785 v -3.59473 l -1.24805,3.59473 h -0.5127 l -1.24218,-3.65625 v 3.65625 z"
         id="path354" />
      <path
         d="m 581.27936,-161.88461 v -4.29492 h 0.56836 v 4.29492 z"
         id="path356" />
      <path
         d="m 582.82721,-161.88461 v -4.29492 h 0.56836 v 3.78808 h 2.11523 v 0.50684 z"
         id="path358" />
      <path
         d="m 586.3233,-163.2645 0.53614,-0.0469 q 0.0381,0.32226 0.17578,0.53027 0.14062,0.20508 0.43359,0.33399 0.29297,0.12597 0.65918,0.12597 0.3252,0 0.57422,-0.0967 0.24902,-0.0967 0.36914,-0.26367 0.12305,-0.16992 0.12305,-0.36914 0,-0.20215 -0.11719,-0.35156 -0.11719,-0.15234 -0.38672,-0.25488 -0.17285,-0.0674 -0.76465,-0.20801 -0.59179,-0.14356 -0.8291,-0.26953 -0.30762,-0.16114 -0.45996,-0.39844 -0.14941,-0.24023 -0.14941,-0.53613 0,-0.3252 0.18457,-0.60645 0.18457,-0.28418 0.53906,-0.43066 0.35449,-0.14649 0.78808,-0.14649 0.47754,0 0.84082,0.15528 0.36622,0.15234 0.5625,0.45117 0.19629,0.29883 0.21094,0.67676 l -0.54492,0.041 q -0.0439,-0.40722 -0.29883,-0.61523 -0.25195,-0.20801 -0.74707,-0.20801 -0.51562,0 -0.75293,0.19043 -0.23437,0.1875 -0.23437,0.4541 0,0.23145 0.16699,0.38086 0.16406,0.14941 0.85547,0.30762 0.69433,0.15527 0.95215,0.27246 0.375,0.17285 0.55371,0.43945 0.17871,0.26367 0.17871,0.60938 0,0.34277 -0.19629,0.64746 -0.19629,0.30176 -0.56543,0.47168 -0.36621,0.16699 -0.82617,0.16699 -0.58301,0 -0.97852,-0.16992 -0.39258,-0.16992 -0.61816,-0.50977 -0.22266,-0.34277 -0.23438,-0.77344 z"
         id="path360" />
      <path
         d="m 498.63501,-122.58053 h 0.56836 v 2.48145 q 0,0.64746 -0.14649,1.02832 -0.14648,0.38086 -0.53027,0.62109 -0.38086,0.23731 -1.00195,0.23731 -0.60352,0 -0.98731,-0.20801 -0.38379,-0.20801 -0.54785,-0.60059 -0.16406,-0.39551 -0.16406,-1.07812 v -2.48145 h 0.56836 v 2.47852 q 0,0.55957 0.10254,0.82617 0.10547,0.26367 0.35742,0.40723 0.25488,0.14355 0.62109,0.14355 0.62696,0 0.89356,-0.28418 0.2666,-0.28418 0.2666,-1.09277 z"
         id="path362" />
      <path
         d="m 501.24142,-118.28561 v -3.78808 h -1.41503 v -0.50684 h 3.40429 v 0.50684 h -1.4209 v 3.78808 z"
         id="path364" />
      <path
         d="m 503.79709,-118.28561 v -4.29492 h 0.85547 l 1.0166,3.04102 q 0.14062,0.4248 0.20508,0.63574 0.0732,-0.23438 0.22851,-0.68848 l 1.02832,-2.98828 h 0.76465 v 4.29492 h -0.54785 v -3.59472 l -1.24805,3.59472 h -0.51269 l -1.24219,-3.65625 v 3.65625 z"
         id="path366" />
      <path
         d="m 512.49042,-119.97018 v -0.5039 l 1.81933,-0.003 v 1.59375 q -0.41894,0.33398 -0.86425,0.5039 -0.44532,0.167 -0.91407,0.167 -0.63281,0 -1.15136,-0.26954 -0.51563,-0.27246 -0.7793,-0.78515 -0.26367,-0.5127 -0.26367,-1.14551 0,-0.62695 0.26074,-1.16894 0.26367,-0.54493 0.75586,-0.8086 0.49219,-0.26367 1.13379,-0.26367 0.46582,0 0.84082,0.15234 0.37793,0.14942 0.59179,0.41895 0.21387,0.26953 0.3252,0.70312 l -0.5127,0.14063 q -0.0967,-0.32813 -0.24023,-0.51563 -0.14355,-0.1875 -0.41016,-0.29882 -0.2666,-0.11426 -0.59179,-0.11426 -0.38965,0 -0.67383,0.12011 -0.28418,0.11719 -0.45996,0.31055 -0.17285,0.19336 -0.26953,0.42481 -0.16407,0.39843 -0.16407,0.86425 0,0.57422 0.19629,0.96094 0.19922,0.38672 0.57715,0.57422 0.37793,0.1875 0.80274,0.1875 0.36914,0 0.7207,-0.14062 0.35156,-0.14356 0.5332,-0.30469 v -0.79981 z"
         id="path368" />
      <path
         d="m 515.15747,-118.28561 v -4.29492 h 1.9043 q 0.57422,0 0.87304,0.11719 0.29883,0.11426 0.47754,0.40723 0.17871,0.29296 0.17871,0.64746 0,0.45703 -0.29589,0.7705 -0.2959,0.31348 -0.91407,0.39844 0.22559,0.1084 0.34278,0.21387 0.24902,0.22851 0.47168,0.57129 l 0.74707,1.16894 h -0.71485 l -0.56836,-0.89355 q -0.24902,-0.38672 -0.41015,-0.5918 -0.16114,-0.20508 -0.29004,-0.28711 -0.12598,-0.082 -0.25781,-0.11426 -0.0967,-0.0205 -0.31641,-0.0205 h -0.65918 v 1.90722 z m 0.56836,-2.39941 h 1.22168 q 0.38965,0 0.60937,-0.0791 0.21973,-0.082 0.33399,-0.25781 0.11426,-0.17872 0.11426,-0.38672 0,-0.30469 -0.22266,-0.50098 -0.21973,-0.19629 -0.69726,-0.19629 h -1.35938 z"
         id="path370" />
      <path
         d="m 519.57733,-118.28561 v -4.29492 h 0.56836 v 4.29492 z"
         id="path372" />
      <path
         d="m 521.14868,-118.28561 v -4.29492 h 1.47949 q 0.50098,0 0.76465,0.0615 0.36914,0.085 0.62989,0.30761 0.33984,0.28711 0.50683,0.73535 0.16992,0.44532 0.16992,1.01954 0,0.48925 -0.11425,0.86718 -0.11426,0.37793 -0.29297,0.62696 -0.17871,0.24609 -0.39258,0.38964 -0.21094,0.14063 -0.5127,0.21387 -0.29883,0.0732 -0.68847,0.0732 z m 0.56836,-0.50683 h 0.91699 q 0.42481,0 0.66504,-0.0791 0.24317,-0.0791 0.38672,-0.22266 0.20215,-0.20215 0.31348,-0.54199 0.11426,-0.34278 0.11426,-0.8291 0,-0.67383 -0.22266,-1.03418 -0.21973,-0.36328 -0.53613,-0.48633 -0.22852,-0.0879 -0.73536,-0.0879 h -0.90234 z"
         id="path374" />
      <path
         d="m 526.45428,-118.28561 1.64942,-4.29492 h 0.6123 l 1.75782,4.29492 h -0.64747 l -0.50097,-1.30078 h -1.7959 l -0.47168,1.30078 z m 1.23926,-1.76367 h 1.45606 l -0.44825,-1.18945 q -0.20507,-0.54199 -0.30468,-0.89063 -0.082,0.41309 -0.23145,0.82032 z"
         id="path376" />
      <path
         d="m 531.25208,-118.28561 v -4.29492 h 0.583 l 2.25586,3.37207 v -3.37207 h 0.54492 v 4.29492 h -0.583 l -2.25586,-3.375 v 3.375 z"
         id="path378" />
      <path
         d="m 535.58997,-118.28561 v -4.29492 h 1.47949 q 0.50097,0 0.76465,0.0615 0.36914,0.085 0.62988,0.30761 0.33984,0.28711 0.50684,0.73535 0.16992,0.44532 0.16992,1.01954 0,0.48925 -0.11426,0.86718 -0.11426,0.37793 -0.29297,0.62696 -0.17871,0.24609 -0.39258,0.38964 -0.21094,0.14063 -0.51269,0.21387 -0.29883,0.0732 -0.68848,0.0732 z m 0.56836,-0.50683 h 0.91699 q 0.4248,0 0.66504,-0.0791 0.24316,-0.0791 0.38672,-0.22266 0.20214,-0.20215 0.31347,-0.54199 0.11426,-0.34278 0.11426,-0.8291 0,-0.67383 -0.22266,-1.03418 -0.21972,-0.36328 -0.53613,-0.48633 -0.22852,-0.0879 -0.73535,-0.0879 h -0.90234 z"
         id="path380" />
      <path
         d="m 544.14758,-118.79244 v 0.50683 h -2.83886 q -0.006,-0.19043 0.0615,-0.36621 0.1084,-0.29004 0.3457,-0.57129 0.24024,-0.28125 0.69141,-0.65039 0.70019,-0.57422 0.94629,-0.9082 0.24609,-0.33691 0.24609,-0.63574 0,-0.31348 -0.22558,-0.52735 -0.22266,-0.21679 -0.58301,-0.21679 -0.38086,0 -0.60938,0.22851 -0.22851,0.22852 -0.23144,0.63282 l -0.54199,-0.0557 q 0.0557,-0.60644 0.41894,-0.92285 0.36328,-0.31934 0.97559,-0.31934 0.61816,0 0.97851,0.34278 0.36035,0.34277 0.36035,0.84961 0,0.25781 -0.10547,0.50683 -0.10546,0.24903 -0.35156,0.52442 -0.24316,0.27539 -0.81152,0.75586 -0.47461,0.39843 -0.60938,0.54199 -0.13476,0.14062 -0.22265,0.28418 z"
         id="path382" />
      <path
         d="m 544.7121,-120.40377 q 0,-0.76172 0.15527,-1.22461 0.1582,-0.46582 0.46582,-0.71777 0.31055,-0.25196 0.7793,-0.25196 0.3457,0 0.60644,0.14063 0.26075,0.13769 0.43067,0.40137 0.16992,0.26074 0.2666,0.63867 0.0967,0.375 0.0967,1.01367 0,0.75586 -0.15528,1.22168 -0.15527,0.46289 -0.46582,0.71777 -0.30761,0.25196 -0.77929,0.25196 -0.6211,0 -0.97559,-0.44532 -0.4248,-0.53613 -0.4248,-1.74609 z m 0.54199,0 q 0,1.05762 0.24609,1.40918 0.24903,0.34863 0.61231,0.34863 0.36328,0 0.60937,-0.35156 0.24903,-0.35156 0.24903,-1.40625 0,-1.06055 -0.24903,-1.40918 -0.24609,-0.34863 -0.61523,-0.34863 -0.36328,0 -0.58008,0.30761 -0.27246,0.39258 -0.27246,1.4502 z"
         id="path384" />
      <path
         d="m 550.81958,-118.79244 v 0.50683 h -2.83887 q -0.006,-0.19043 0.0615,-0.36621 0.10839,-0.29004 0.3457,-0.57129 0.24023,-0.28125 0.69141,-0.65039 0.70019,-0.57422 0.94628,-0.9082 0.2461,-0.33691 0.2461,-0.63574 0,-0.31348 -0.22559,-0.52735 -0.22265,-0.21679 -0.58301,-0.21679 -0.38085,0 -0.60937,0.22851 -0.22852,0.22852 -0.23145,0.63282 l -0.54199,-0.0557 q 0.0557,-0.60644 0.41895,-0.92285 0.36328,-0.31934 0.97558,-0.31934 0.61817,0 0.97852,0.34278 0.36035,0.34277 0.36035,0.84961 0,0.25781 -0.10547,0.50683 -0.10547,0.24903 -0.35156,0.52442 -0.24316,0.27539 -0.81152,0.75586 -0.47461,0.39843 -0.60938,0.54199 -0.13476,0.14062 -0.22266,0.28418 z"
         id="path386" />
      <path
         d="m 551.38409,-119.41061 0.55372,-0.0469 q 0.0615,0.4043 0.28417,0.60937 0.22559,0.20215 0.542,0.20215 0.38086,0 0.64453,-0.28711 0.26367,-0.28711 0.26367,-0.76172 0,-0.45117 -0.25488,-0.71191 -0.25196,-0.26074 -0.66211,-0.26074 -0.25488,0 -0.45996,0.11719 -0.20508,0.11425 -0.32227,0.29882 l -0.49512,-0.0645 0.41602,-2.20605 h 2.13574 v 0.5039 h -1.71387 l -0.23144,1.1543 q 0.38672,-0.26953 0.81152,-0.26953 0.5625,0 0.94922,0.38965 0.38672,0.38964 0.38672,1.00195 0,0.58301 -0.33984,1.00781 -0.41309,0.52149 -1.12793,0.52149 -0.58594,0 -0.95801,-0.32813 -0.36914,-0.32812 -0.42188,-0.87012 z"
         id="path388" />
      <path
         d="m 556.58441,-118.28561 v -4.29492 h 0.85547 l 1.0166,3.04102 q 0.14063,0.4248 0.20508,0.63574 0.0732,-0.23438 0.22852,-0.68848 l 1.02832,-2.98828 h 0.76464 v 4.29492 h -0.54785 v -3.59472 l -1.24804,3.59472 h -0.5127 l -1.24219,-3.65625 v 3.65625 z"
         id="path390" />
      <path
         d="m 561.1283,-118.28561 1.64941,-4.29492 h 0.6123 l 1.75782,4.29492 h -0.64746 l -0.50098,-1.30078 h -1.7959 l -0.47168,1.30078 z m 1.23925,-1.76367 h 1.45606 l -0.44824,-1.18945 q -0.20508,-0.54199 -0.30469,-0.89063 -0.082,0.41309 -0.23145,0.82032 z"
         id="path392" />
      <path
         d="m 567.94171,-119.97018 v -0.5039 l 1.81934,-0.003 v 1.59375 q -0.41895,0.33398 -0.86426,0.5039 -0.44531,0.167 -0.91406,0.167 -0.63282,0 -1.15137,-0.26954 -0.51563,-0.27246 -0.7793,-0.78515 -0.26367,-0.5127 -0.26367,-1.14551 0,-0.62695 0.26074,-1.16894 0.26368,-0.54493 0.75586,-0.8086 0.49219,-0.26367 1.13379,-0.26367 0.46582,0 0.84082,0.15234 0.37793,0.14942 0.5918,0.41895 0.21387,0.26953 0.32519,0.70312 l -0.51269,0.14063 q -0.0967,-0.32813 -0.24024,-0.51563 -0.14355,-0.1875 -0.41015,-0.29882 -0.2666,-0.11426 -0.5918,-0.11426 -0.38965,0 -0.67383,0.12011 -0.28418,0.11719 -0.45996,0.31055 -0.17285,0.19336 -0.26953,0.42481 -0.16406,0.39843 -0.16406,0.86425 0,0.57422 0.19629,0.96094 0.19922,0.38672 0.57715,0.57422 0.37793,0.1875 0.80273,0.1875 0.36914,0 0.7207,-0.14062 0.35157,-0.14356 0.53321,-0.30469 v -0.79981 z"
         id="path394" />
      <path
         d="m 570.59412,-118.28561 v -4.29492 h 0.583 l 2.25586,3.37207 v -3.37207 h 0.54493 v 4.29492 h -0.58301 l -2.25586,-3.375 v 3.375 z"
         id="path396" />
      <path
         d="m 574.94366,-118.28561 v -4.29492 h 3.10547 v 0.50684 h -2.53711 v 1.31543 h 2.37598 v 0.5039 h -2.37598 v 1.46192 h 2.63672 v 0.50683 z"
         id="path398" />
      <path
         d="m 580.02673,-118.28561 v -3.78808 h -1.41504 v -0.50684 h 3.4043 v 0.50684 h -1.4209 v 3.78808 z"
         id="path400" />
      <path
         d="m 582.69666,-118.28561 v -4.29492 h 0.56835 v 4.29492 z"
         id="path402" />
      <path
         d="m 587.3324,-119.79147 0.56836,0.14356 q -0.17871,0.70019 -0.64453,1.06933 -0.4629,0.36622 -1.13379,0.36622 -0.69434,0 -1.13086,-0.28125 -0.4336,-0.28418 -0.66211,-0.82032 -0.22559,-0.53613 -0.22559,-1.15136 0,-0.6709 0.25488,-1.16895 0.25782,-0.50098 0.7295,-0.75879 0.47461,-0.26074 1.04297,-0.26074 0.64453,0 1.08398,0.32812 0.43945,0.32813 0.6123,0.92286 l -0.55957,0.13183 q -0.14941,-0.46875 -0.43359,-0.68262 -0.28418,-0.21386 -0.71484,-0.21386 -0.49512,0 -0.8291,0.2373 -0.33106,0.23731 -0.46583,0.63867 -0.13476,0.39844 -0.13476,0.82325 0,0.54785 0.1582,0.958 0.16114,0.40723 0.49805,0.60938 0.33691,0.20215 0.72949,0.20215 0.47754,0 0.8086,-0.27539 0.33105,-0.27539 0.44824,-0.81739 z"
         id="path404" />
      <path
         d="m 590.26208,-118.28561 v -4.29492 h 0.58301 l 2.25586,3.37207 v -3.37207 h 0.54492 v 4.29492 h -0.583 l -2.25586,-3.375 v 3.375 z"
         id="path406" />
      <path
         d="m 594.42712,-120.3774 q 0,-1.06934 0.57422,-1.67285 0.57422,-0.60645 1.48242,-0.60645 0.59473,0 1.07227,0.28418 0.47754,0.28418 0.72656,0.79394 0.25196,0.50684 0.25196,1.15137 0,0.65332 -0.26368,1.16895 -0.26367,0.51562 -0.74707,0.78222 -0.48339,0.26368 -1.04297,0.26368 -0.60644,0 -1.08398,-0.29297 -0.47754,-0.29297 -0.72363,-0.79981 -0.2461,-0.50683 -0.2461,-1.07226 z m 0.58594,0.009 q 0,0.77636 0.41602,1.22461 0.41894,0.44531 1.04883,0.44531 0.6416,0 1.05468,-0.45117 0.41602,-0.45118 0.41602,-1.28028 0,-0.52441 -0.17871,-0.91406 -0.17578,-0.39258 -0.51856,-0.60645 -0.33984,-0.21679 -0.76465,-0.21679 -0.60351,0 -1.04003,0.41601 -0.4336,0.41309 -0.4336,1.38282 z"
         id="path408" />
      <path
         d="m 599.27673,-118.28561 v -4.29492 h 1.9043 q 0.57422,0 0.87305,0.11719 0.29883,0.11426 0.47754,0.40723 0.17871,0.29296 0.17871,0.64746 0,0.45703 -0.2959,0.7705 -0.2959,0.31348 -0.91406,0.39844 0.22558,0.1084 0.34277,0.21387 0.24902,0.22851 0.47168,0.57129 l 0.74707,1.16894 h -0.71484 l -0.56836,-0.89355 q -0.24903,-0.38672 -0.41016,-0.5918 -0.16113,-0.20508 -0.29004,-0.28711 -0.12598,-0.082 -0.25781,-0.11426 -0.0967,-0.0205 -0.31641,-0.0205 h -0.65918 v 1.90722 z m 0.56836,-2.39941 h 1.22168 q 0.38965,0 0.60938,-0.0791 0.21972,-0.082 0.33398,-0.25781 0.11426,-0.17872 0.11426,-0.38672 0,-0.30469 -0.22266,-0.50098 -0.21972,-0.19629 -0.69726,-0.19629 h -1.35938 z"
         id="path410" />
      <path
         d="m 604.69275,-118.28561 v -3.78808 h -1.41504 v -0.50684 h 3.4043 v 0.50684 h -1.4209 v 3.78808 z"
         id="path412" />
      <path
         d="m 607.28357,-118.28561 v -4.29492 h 0.56836 v 1.76367 h 2.23242 v -1.76367 h 0.56836 v 4.29492 h -0.56836 v -2.02441 h -2.23242 v 2.02441 z"
         id="path414" />
      <path
         d="m 499.93167,-111.38661 v -4.29492 h 1.47949 q 0.50098,0 0.76465,0.0615 0.36914,0.085 0.62988,0.30762 0.33985,0.28711 0.50684,0.73535 0.16992,0.44531 0.16992,1.01953 0,0.48926 -0.11426,0.86719 -0.11425,0.37793 -0.29296,0.62695 -0.17872,0.24609 -0.39258,0.38965 -0.21094,0.14062 -0.5127,0.21387 -0.29883,0.0732 -0.68847,0.0732 z m 0.56836,-0.50684 h 0.91699 q 0.42481,0 0.66504,-0.0791 0.24317,-0.0791 0.38672,-0.22266 0.20215,-0.20214 0.31348,-0.54199 0.11425,-0.34277 0.11425,-0.8291 0,-0.67383 -0.22265,-1.03418 -0.21973,-0.36328 -0.53613,-0.48633 -0.22852,-0.0879 -0.73536,-0.0879 h -0.90234 z"
         id="path416" />
      <path
         d="m 504.27539,-111.38661 v -4.29492 h 3.10547 v 0.50683 h -2.53711 v 1.31543 h 2.37598 v 0.50391 h -2.37598 v 1.46191 h 2.63672 v 0.50684 z"
         id="path418" />
      <path
         d="m 511.33011,-112.89247 0.56836,0.14355 q -0.17871,0.7002 -0.64453,1.06934 -0.46289,0.36621 -1.13379,0.36621 -0.69434,0 -1.13086,-0.28125 -0.4336,-0.28418 -0.66211,-0.82031 -0.22559,-0.53614 -0.22559,-1.15137 0,-0.6709 0.25489,-1.16894 0.25781,-0.50098 0.72949,-0.75879 0.47461,-0.26075 1.04297,-0.26075 0.64453,0 1.08398,0.32813 0.43945,0.32812 0.61231,0.92285 l -0.55957,0.13184 q -0.14942,-0.46875 -0.4336,-0.68262 -0.28418,-0.21387 -0.71484,-0.21387 -0.49512,0 -0.8291,0.23731 -0.33106,0.2373 -0.46582,0.63867 -0.13477,0.39844 -0.13477,0.82324 0,0.54785 0.1582,0.95801 0.16114,0.40723 0.49805,0.60937 0.33691,0.20215 0.72949,0.20215 0.47754,0 0.8086,-0.27539 0.33105,-0.27539 0.44824,-0.81738 z"
         id="path420" />
      <path
         d="m 512.57422,-111.38661 v -4.29492 h 0.56836 v 3.78808 h 2.11523 v 0.50684 z"
         id="path422" />
      <path
         d="m 516.36035,-111.38661 v -4.29492 h 0.56836 v 4.29492 z"
         id="path424" />
      <path
         d="m 517.92578,-111.38661 v -4.29492 h 0.58301 l 2.25586,3.37207 v -3.37207 h 0.54492 v 4.29492 h -0.58301 l -2.25586,-3.375 v 3.375 z"
         id="path426" />
      <path
         d="m 521.79199,-111.38661 1.64942,-4.29492 h 0.6123 l 1.75781,4.29492 h -0.64746 l -0.50097,-1.30078 h -1.7959 l -0.47168,1.30078 z m 1.23926,-1.76367 h 1.45605 l -0.44824,-1.18946 q -0.20508,-0.54199 -0.30469,-0.89062 -0.082,0.41308 -0.23144,0.82031 z"
         id="path428" />
      <path
         d="m 527.2431,-111.38661 v -3.78809 h -1.41504 v -0.50683 h 3.4043 v 0.50683 h -1.4209 v 3.78809 z"
         id="path430" />
      <path
         d="m 529.91302,-111.38661 v -4.29492 h 0.56836 v 4.29492 z"
         id="path432" />
      <path
         d="m 531.31152,-113.47841 q 0,-1.06933 0.57422,-1.67285 0.57422,-0.60645 1.48242,-0.60645 0.59473,0 1.07227,0.28418 0.47754,0.28418 0.72656,0.79395 0.25196,0.50684 0.25196,1.15137 0,0.65332 -0.26368,1.16894 -0.26367,0.51563 -0.74707,0.78223 -0.4834,0.26367 -1.04297,0.26367 -0.60644,0 -1.08398,-0.29297 -0.47754,-0.29297 -0.72363,-0.7998 -0.2461,-0.50684 -0.2461,-1.07227 z m 0.58594,0.009 q 0,0.77637 0.41602,1.22461 0.41894,0.44531 1.04882,0.44531 0.64161,0 1.05469,-0.45117 0.41602,-0.45117 0.41602,-1.28027 0,-0.52442 -0.17871,-0.91407 -0.17578,-0.39257 -0.51856,-0.60644 -0.33984,-0.2168 -0.76465,-0.2168 -0.60351,0 -1.04004,0.41602 -0.43359,0.41308 -0.43359,1.38281 z"
         id="path434" />
      <path
         d="m 536.14648,-111.38661 v -4.29492 h 0.58301 l 2.25586,3.37207 v -3.37207 h 0.54492 v 4.29492 h -0.583 l -2.25586,-3.375 v 3.375 z"
         id="path436" />
      <path
         d="m 541.45801,-111.38661 1.64941,-4.29492 h 0.61231 l 1.75781,4.29492 h -0.64746 l -0.50098,-1.30078 h -1.7959 l -0.47168,1.30078 z m 1.23926,-1.76367 h 1.45605 l -0.44824,-1.18946 q -0.20508,-0.54199 -0.30469,-0.89062 -0.082,0.41308 -0.23144,0.82031 z"
         id="path438" />
      <path
         d="m 546.90912,-111.38661 v -3.78809 h -1.41504 v -0.50683 h 3.4043 v 0.50683 h -1.4209 v 3.78809 z"
         id="path440" />
      <path
         d="m 554.21478,-112.89247 0.56836,0.14355 q -0.17871,0.7002 -0.64453,1.06934 -0.46289,0.36621 -1.13379,0.36621 -0.69433,0 -1.13086,-0.28125 -0.43359,-0.28418 -0.66211,-0.82031 -0.22558,-0.53614 -0.22558,-1.15137 0,-0.6709 0.25488,-1.16894 0.25781,-0.50098 0.72949,-0.75879 0.47461,-0.26075 1.04297,-0.26075 0.64453,0 1.08399,0.32813 0.43945,0.32812 0.6123,0.92285 l -0.55957,0.13184 q -0.14941,-0.46875 -0.43359,-0.68262 -0.28418,-0.21387 -0.71485,-0.21387 -0.49512,0 -0.8291,0.23731 -0.33105,0.2373 -0.46582,0.63867 -0.13477,0.39844 -0.13477,0.82324 0,0.54785 0.15821,0.95801 0.16113,0.40723 0.49804,0.60937 0.33692,0.20215 0.7295,0.20215 0.47754,0 0.80859,-0.27539 0.33106,-0.27539 0.44824,-0.81738 z"
         id="path442" />
      <path
         d="m 555.49408,-111.38661 v -4.29492 h 3.10547 v 0.50683 h -2.53711 v 1.31543 h 2.37598 v 0.50391 h -2.37598 v 1.46191 h 2.63672 v 0.50684 z"
         id="path444" />
      <path
         d="m 559.47852,-111.38661 v -4.29492 h 0.583 l 2.25586,3.37207 v -3.37207 h 0.54492 v 4.29492 h -0.583 l -2.25586,-3.375 v 3.375 z"
         id="path446" />
      <path
         d="m 564.90912,-111.38661 v -3.78809 h -1.41504 v -0.50683 h 3.4043 v 0.50683 h -1.4209 v 3.78809 z"
         id="path448" />
      <path
         d="m 567.49408,-111.38661 v -4.29492 h 3.10547 v 0.50683 h -2.53711 v 1.31543 h 2.37598 v 0.50391 h -2.37598 v 1.46191 h 2.63672 v 0.50684 z"
         id="path450" />
      <path
         d="m 571.49316,-111.38661 v -4.29492 h 1.9043 q 0.57422,0 0.87305,0.11718 0.29883,0.11426 0.47754,0.40723 0.17871,0.29297 0.17871,0.64746 0,0.45703 -0.2959,0.77051 -0.2959,0.31348 -0.91406,0.39844 0.22558,0.10839 0.34277,0.21386 0.24902,0.22852 0.47168,0.57129 l 0.74707,1.16895 h -0.71484 l -0.56836,-0.89356 q -0.24903,-0.38672 -0.41016,-0.59179 -0.16113,-0.20508 -0.29004,-0.28711 -0.12597,-0.082 -0.25781,-0.11426 -0.0967,-0.0205 -0.31641,-0.0205 h -0.65918 v 1.90723 z m 0.56836,-2.39942 h 1.22168 q 0.38965,0 0.60938,-0.0791 0.21972,-0.082 0.33398,-0.25781 0.11426,-0.17871 0.11426,-0.38672 0,-0.30469 -0.22266,-0.50098 -0.21972,-0.19628 -0.69726,-0.19628 h -1.35938 z"
         id="path452" />
      <path
         d="m 577.31152,-113.47841 q 0,-1.06933 0.57422,-1.67285 0.57422,-0.60645 1.48242,-0.60645 0.59473,0 1.07227,0.28418 0.47754,0.28418 0.72656,0.79395 0.25196,0.50684 0.25196,1.15137 0,0.65332 -0.26368,1.16894 -0.26367,0.51563 -0.74707,0.78223 -0.4834,0.26367 -1.04297,0.26367 -0.60644,0 -1.08398,-0.29297 -0.47754,-0.29297 -0.72363,-0.7998 -0.2461,-0.50684 -0.2461,-1.07227 z m 0.58594,0.009 q 0,0.77637 0.41602,1.22461 0.41894,0.44531 1.04882,0.44531 0.64161,0 1.05469,-0.45117 0.41602,-0.45117 0.41602,-1.28027 0,-0.52442 -0.17871,-0.91407 -0.17578,-0.39257 -0.51856,-0.60644 -0.33984,-0.2168 -0.76465,-0.2168 -0.60351,0 -1.04004,0.41602 -0.43359,0.41308 -0.43359,1.38281 z"
         id="path454" />
      <path
         d="m 582.18164,-111.38661 v -4.29492 h 2.89746 v 0.50683 H 582.75 v 1.33008 h 2.01562 v 0.50684 H 582.75 v 1.95117 z"
         id="path456" />
      <path
         d="m 587.29297,-112.76649 0.53613,-0.0469 q 0.0381,0.32227 0.17578,0.53027 0.14063,0.20508 0.4336,0.33399 0.29297,0.12597 0.65918,0.12597 0.32519,0 0.57421,-0.0967 0.24903,-0.0967 0.36915,-0.26367 0.12304,-0.16992 0.12304,-0.36914 0,-0.20215 -0.11719,-0.35156 -0.11718,-0.15234 -0.38671,-0.25488 -0.17286,-0.0674 -0.76465,-0.20801 -0.5918,-0.14356 -0.8291,-0.26953 -0.30762,-0.16113 -0.45996,-0.39844 -0.14942,-0.24023 -0.14942,-0.53613 0,-0.3252 0.18457,-0.60645 0.18457,-0.28418 0.53906,-0.43066 0.3545,-0.14649 0.78809,-0.14649 0.47754,0 0.84082,0.15528 0.36621,0.15234 0.5625,0.45117 0.19629,0.29883 0.21094,0.67676 l -0.54492,0.041 q -0.0439,-0.40722 -0.29883,-0.61523 -0.25196,-0.20801 -0.74707,-0.20801 -0.51563,0 -0.75293,0.19043 -0.23438,0.1875 -0.23438,0.4541 0,0.23145 0.16699,0.38086 0.16407,0.14942 0.85547,0.30762 0.69434,0.15527 0.95215,0.27246 0.375,0.17285 0.55371,0.43945 0.17871,0.26367 0.17871,0.60938 0,0.34277 -0.19629,0.64746 -0.19628,0.30176 -0.56542,0.47168 -0.36622,0.16699 -0.82618,0.16699 -0.583,0 -0.97851,-0.16992 -0.39258,-0.16992 -0.61817,-0.50977 -0.22265,-0.34277 -0.23437,-0.77343 z"
         id="path458" />
      <path
         d="m 591.50592,-111.38661 v -4.29492 h 0.56836 v 1.76367 h 2.23242 v -1.76367 h 0.56836 v 4.29492 h -0.56836 v -2.02442 h -2.23242 v 2.02442 z"
         id="path460" />
      <path
         d="m 595.83209,-111.38661 v -4.29492 h 3.10547 v 0.50683 h -2.53711 v 1.31543 h 2.37598 v 0.50391 h -2.37598 v 1.46191 h 2.63672 v 0.50684 z"
         id="path462" />
      <path
         d="m 599.83411,-111.38661 v -4.29492 h 3.10547 v 0.50683 h -2.53711 v 1.31543 h 2.37597 v 0.50391 h -2.37597 v 1.46191 h 2.63671 v 0.50684 z"
         id="path464" />
      <path
         d="m 604.91711,-111.38661 v -3.78809 h -1.41503 v -0.50683 h 3.40429 v 0.50683 h -1.4209 v 3.78809 z"
         id="path466" />
    </g>
  </g>
</svg>
