<?xml version='1.0' encoding='ASCII' standalone='yes'?>
<svg xmlns="http://www.w3.org/2000/svg" xmlns:xlink="http://www.w3.org/1999/xlink" version="1.1" width="1500px" viewBox="0 0 37.0 37.0" height="1500px">
  <g>
    <g><rect width="100%" height="100%" fill="#FFFFFF"/>
	<path d="M4,4h1v1h-1z M5,4h1v1h-1z M6,4h1v1h-1z M7,4h1v1h-1z M8,4h1v1h-1z M9,4h1v1h-1z M10,4h1v1h-1z M12,4h1v1h-1z M14,4h1v1h-1z M15,4h1v1h-1z M17,4h1v1h-1z M18,4h1v1h-1z M19,4h1v1h-1z M21,4h1v1h-1z M22,4h1v1h-1z M23,4h1v1h-1z M26,4h1v1h-1z M27,4h1v1h-1z M28,4h1v1h-1z M29,4h1v1h-1z M30,4h1v1h-1z M31,4h1v1h-1z M32,4h1v1h-1z M4,5h1v1h-1z M10,5h1v1h-1z M12,5h1v1h-1z M13,5h1v1h-1z M14,5h1v1h-1z M15,5h1v1h-1z M17,5h1v1h-1z M18,5h1v1h-1z M22,5h1v1h-1z M23,5h1v1h-1z M24,5h1v1h-1z M26,5h1v1h-1z M32,5h1v1h-1z M4,6h1v1h-1z M6,6h1v1h-1z M7,6h1v1h-1z M8,6h1v1h-1z M10,6h1v1h-1z M12,6h1v1h-1z M14,6h1v1h-1z M16,6h1v1h-1z M19,6h1v1h-1z M20,6h1v1h-1z M22,6h1v1h-1z M23,6h1v1h-1z M26,6h1v1h-1z M28,6h1v1h-1z M29,6h1v1h-1z M30,6h1v1h-1z M32,6h1v1h-1z M4,7h1v1h-1z M6,7h1v1h-1z M7,7h1v1h-1z M8,7h1v1h-1z M10,7h1v1h-1z M12,7h1v1h-1z M17,7h1v1h-1z M18,7h1v1h-1z M20,7h1v1h-1z M22,7h1v1h-1z M23,7h1v1h-1z M26,7h1v1h-1z M28,7h1v1h-1z M29,7h1v1h-1z M30,7h1v1h-1z M32,7h1v1h-1z M4,8h1v1h-1z M6,8h1v1h-1z M7,8h1v1h-1z M8,8h1v1h-1z M10,8h1v1h-1z M12,8h1v1h-1z M14,8h1v1h-1z M17,8h1v1h-1z M18,8h1v1h-1z M20,8h1v1h-1z M21,8h1v1h-1z M22,8h1v1h-1z M23,8h1v1h-1z M26,8h1v1h-1z M28,8h1v1h-1z M29,8h1v1h-1z M30,8h1v1h-1z M32,8h1v1h-1z M4,9h1v1h-1z M10,9h1v1h-1z M14,9h1v1h-1z M16,9h1v1h-1z M18,9h1v1h-1z M20,9h1v1h-1z M21,9h1v1h-1z M23,9h1v1h-1z M24,9h1v1h-1z M26,9h1v1h-1z M32,9h1v1h-1z M4,10h1v1h-1z M5,10h1v1h-1z M6,10h1v1h-1z M7,10h1v1h-1z M8,10h1v1h-1z M9,10h1v1h-1z M10,10h1v1h-1z M12,10h1v1h-1z M14,10h1v1h-1z M16,10h1v1h-1z M18,10h1v1h-1z M20,10h1v1h-1z M22,10h1v1h-1z M24,10h1v1h-1z M26,10h1v1h-1z M27,10h1v1h-1z M28,10h1v1h-1z M29,10h1v1h-1z M30,10h1v1h-1z M31,10h1v1h-1z M32,10h1v1h-1z M12,11h1v1h-1z M13,11h1v1h-1z M14,11h1v1h-1z M15,11h1v1h-1z M16,11h1v1h-1z M19,11h1v1h-1z M21,11h1v1h-1z M23,11h1v1h-1z M5,12h1v1h-1z M6,12h1v1h-1z M8,12h1v1h-1z M10,12h1v1h-1z M11,12h1v1h-1z M13,12h1v1h-1z M17,12h1v1h-1z M19,12h1v1h-1z M20,12h1v1h-1z M22,12h1v1h-1z M23,12h1v1h-1z M24,12h1v1h-1z M26,12h1v1h-1z M28,12h1v1h-1z M29,12h1v1h-1z M30,12h1v1h-1z M31,12h1v1h-1z M32,12h1v1h-1z M8,13h1v1h-1z M11,13h1v1h-1z M12,13h1v1h-1z M15,13h1v1h-1z M19,13h1v1h-1z M24,13h1v1h-1z M25,13h1v1h-1z M26,13h1v1h-1z M29,13h1v1h-1z M30,13h1v1h-1z M32,13h1v1h-1z M7,14h1v1h-1z M10,14h1v1h-1z M11,14h1v1h-1z M12,14h1v1h-1z M13,14h1v1h-1z M14,14h1v1h-1z M15,14h1v1h-1z M17,14h1v1h-1z M18,14h1v1h-1z M21,14h1v1h-1z M22,14h1v1h-1z M27,14h1v1h-1z M31,14h1v1h-1z M32,14h1v1h-1z M5,15h1v1h-1z M6,15h1v1h-1z M7,15h1v1h-1z M9,15h1v1h-1z M11,15h1v1h-1z M13,15h1v1h-1z M14,15h1v1h-1z M18,15h1v1h-1z M19,15h1v1h-1z M20,15h1v1h-1z M21,15h1v1h-1z M22,15h1v1h-1z M23,15h1v1h-1z M24,15h1v1h-1z M25,15h1v1h-1z M26,15h1v1h-1z M28,15h1v1h-1z M31,15h1v1h-1z M5,16h1v1h-1z M8,16h1v1h-1z M10,16h1v1h-1z M11,16h1v1h-1z M12,16h1v1h-1z M13,16h1v1h-1z M15,16h1v1h-1z M16,16h1v1h-1z M17,16h1v1h-1z M18,16h1v1h-1z M19,16h1v1h-1z M21,16h1v1h-1z M22,16h1v1h-1z M24,16h1v1h-1z M26,16h1v1h-1z M27,16h1v1h-1z M5,17h1v1h-1z M6,17h1v1h-1z M7,17h1v1h-1z M9,17h1v1h-1z M11,17h1v1h-1z M13,17h1v1h-1z M15,17h1v1h-1z M17,17h1v1h-1z M24,17h1v1h-1z M25,17h1v1h-1z M26,17h1v1h-1z M27,17h1v1h-1z M32,17h1v1h-1z M6,18h1v1h-1z M7,18h1v1h-1z M9,18h1v1h-1z M10,18h1v1h-1z M11,18h1v1h-1z M15,18h1v1h-1z M17,18h1v1h-1z M19,18h1v1h-1z M21,18h1v1h-1z M24,18h1v1h-1z M25,18h1v1h-1z M27,18h1v1h-1z M30,18h1v1h-1z M31,18h1v1h-1z M32,18h1v1h-1z M4,19h1v1h-1z M5,19h1v1h-1z M7,19h1v1h-1z M9,19h1v1h-1z M12,19h1v1h-1z M13,19h1v1h-1z M14,19h1v1h-1z M15,19h1v1h-1z M17,19h1v1h-1z M20,19h1v1h-1z M23,19h1v1h-1z M24,19h1v1h-1z M27,19h1v1h-1z M31,19h1v1h-1z M32,19h1v1h-1z M5,20h1v1h-1z M6,20h1v1h-1z M10,20h1v1h-1z M11,20h1v1h-1z M18,20h1v1h-1z M23,20h1v1h-1z M26,20h1v1h-1z M29,20h1v1h-1z M31,20h1v1h-1z M5,21h1v1h-1z M6,21h1v1h-1z M8,21h1v1h-1z M13,21h1v1h-1z M17,21h1v1h-1z M19,21h1v1h-1z M23,21h1v1h-1z M24,21h1v1h-1z M25,21h1v1h-1z M26,21h1v1h-1z M29,21h1v1h-1z M31,21h1v1h-1z M32,21h1v1h-1z M4,22h1v1h-1z M8,22h1v1h-1z M10,22h1v1h-1z M14,22h1v1h-1z M17,22h1v1h-1z M21,22h1v1h-1z M25,22h1v1h-1z M27,22h1v1h-1z M29,22h1v1h-1z M30,22h1v1h-1z M31,22h1v1h-1z M32,22h1v1h-1z M5,23h1v1h-1z M7,23h1v1h-1z M13,23h1v1h-1z M14,23h1v1h-1z M15,23h1v1h-1z M16,23h1v1h-1z M17,23h1v1h-1z M18,23h1v1h-1z M19,23h1v1h-1z M21,23h1v1h-1z M23,23h1v1h-1z M26,23h1v1h-1z M27,23h1v1h-1z M29,23h1v1h-1z M31,23h1v1h-1z M4,24h1v1h-1z M6,24h1v1h-1z M10,24h1v1h-1z M12,24h1v1h-1z M13,24h1v1h-1z M14,24h1v1h-1z M16,24h1v1h-1z M17,24h1v1h-1z M18,24h1v1h-1z M20,24h1v1h-1z M21,24h1v1h-1z M23,24h1v1h-1z M24,24h1v1h-1z M25,24h1v1h-1z M26,24h1v1h-1z M27,24h1v1h-1z M28,24h1v1h-1z M31,24h1v1h-1z M12,25h1v1h-1z M15,25h1v1h-1z M16,25h1v1h-1z M20,25h1v1h-1z M21,25h1v1h-1z M23,25h1v1h-1z M24,25h1v1h-1z M28,25h1v1h-1z M31,25h1v1h-1z M32,25h1v1h-1z M4,26h1v1h-1z M5,26h1v1h-1z M6,26h1v1h-1z M7,26h1v1h-1z M8,26h1v1h-1z M9,26h1v1h-1z M10,26h1v1h-1z M12,26h1v1h-1z M14,26h1v1h-1z M15,26h1v1h-1z M20,26h1v1h-1z M22,26h1v1h-1z M23,26h1v1h-1z M24,26h1v1h-1z M26,26h1v1h-1z M28,26h1v1h-1z M30,26h1v1h-1z M31,26h1v1h-1z M32,26h1v1h-1z M4,27h1v1h-1z M10,27h1v1h-1z M16,27h1v1h-1z M17,27h1v1h-1z M18,27h1v1h-1z M20,27h1v1h-1z M21,27h1v1h-1z M22,27h1v1h-1z M24,27h1v1h-1z M28,27h1v1h-1z M4,28h1v1h-1z M6,28h1v1h-1z M7,28h1v1h-1z M8,28h1v1h-1z M10,28h1v1h-1z M12,28h1v1h-1z M15,28h1v1h-1z M16,28h1v1h-1z M17,28h1v1h-1z M20,28h1v1h-1z M22,28h1v1h-1z M24,28h1v1h-1z M25,28h1v1h-1z M26,28h1v1h-1z M27,28h1v1h-1z M28,28h1v1h-1z M29,28h1v1h-1z M31,28h1v1h-1z M32,28h1v1h-1z M4,29h1v1h-1z M6,29h1v1h-1z M7,29h1v1h-1z M8,29h1v1h-1z M10,29h1v1h-1z M14,29h1v1h-1z M16,29h1v1h-1z M19,29h1v1h-1z M20,29h1v1h-1z M21,29h1v1h-1z M22,29h1v1h-1z M24,29h1v1h-1z M25,29h1v1h-1z M28,29h1v1h-1z M30,29h1v1h-1z M4,30h1v1h-1z M6,30h1v1h-1z M7,30h1v1h-1z M8,30h1v1h-1z M10,30h1v1h-1z M12,30h1v1h-1z M18,30h1v1h-1z M19,30h1v1h-1z M20,30h1v1h-1z M22,30h1v1h-1z M23,30h1v1h-1z M27,30h1v1h-1z M28,30h1v1h-1z M32,30h1v1h-1z M4,31h1v1h-1z M10,31h1v1h-1z M12,31h1v1h-1z M15,31h1v1h-1z M17,31h1v1h-1z M18,31h1v1h-1z M20,31h1v1h-1z M21,31h1v1h-1z M22,31h1v1h-1z M24,31h1v1h-1z M26,31h1v1h-1z M27,31h1v1h-1z M31,31h1v1h-1z M4,32h1v1h-1z M5,32h1v1h-1z M6,32h1v1h-1z M7,32h1v1h-1z M8,32h1v1h-1z M9,32h1v1h-1z M10,32h1v1h-1z M13,32h1v1h-1z M14,32h1v1h-1z M15,32h1v1h-1z M19,32h1v1h-1z M21,32h1v1h-1z M23,32h1v1h-1z M24,32h1v1h-1z M25,32h1v1h-1z M28,32h1v1h-1z M31,32h1v1h-1z M32,32h1v1h-1z" fill="#000000"/>
</g>
    <g transform="translate(14.0, 13.9) scale(1 1) translate(0, 0) scale(0.026 0.026) "><style type="text/css">
	.st0{fill:#FFFFFF;}
</style>
<rect class="st0" width="360" height="360"/>
<g id="symbol">
	<path id="Path" d="M182.7,151.5c-1.7,2.2-3.6,4.4-5.2,6.7c-5.3,6.6-9.9,13.6-13.9,21.1c-0.9,1.8-1.7,3.6-2.2,5.5   c-0.3,0.8-0.5,1.7-0.5,2.5c-0.1,0.7,0,1.4,0.3,2.1c0.6,1.5,1.6,2.8,2.9,3.8c1.5,1.3,3.1,2.5,4.8,3.5c3.6,2.2,7.3,4.2,11.1,6   c3.8,1.9,7.8,4,11.7,6.3c2,1.3,4,2.6,5.9,4.1c2.1,1.7,3.9,3.8,5.2,6.2c0.8,1.4,1.3,2.9,1.6,4.4c0.3,1.6,0.3,3.3,0.2,4.9   c-0.5,3-1.8,5.9-3.6,8.4c-1.6,2-3.4,3.9-5.4,5.5c-1.7,1.5-3.5,2.9-5.4,4.3c-3.6,2.7-7.1,5.1-10.5,7.6c-6.7,4.7-12.9,10-18.7,15.8   c-2.6,2.6-5.1,5.5-7.4,8.4c9.9,14.6,19,29.7,27.1,45.3c29.6-57.3,63-90.3,84-122.3L182.7,151.5z"/>
	<path id="Path-2" d="M182.5,236.6c3.5-2.1,7-4.3,9-6.5c0.9-0.8,1.6-1.8,1.9-3c0.3-1,0.3-2.1-0.2-3c-1-2.4-4-5.2-7.1-7.6   s-6.8-4.6-10.5-6.8s-7.4-4.4-11.1-7.1c-1.9-1.4-3.7-2.9-5.4-4.6c-1.9-1.9-3.4-4.2-4.1-6.8c-0.4-1.4-0.5-2.8-0.3-4.3   c0.1-1.3,0.5-2.5,1-3.6c0.8-2.2,1.7-4.3,2.9-6.3c2.2-3.9,4.6-7.6,7.3-11.1c2.5-3.5,5.2-7,8.1-10.3c1.1-1.3,2.2-2.7,3.5-4L96,202   c12.2,18.5,28.5,37.5,45.9,61.5c2.2-2,4.4-3.9,6.8-5.7c7.1-5.5,14.6-10.5,22.5-14.9C175.2,240.7,179,238.6,182.5,236.6z"/>
	<path id="Path-3" d="M180,85.1c-30.6,0-55.4,24.8-55.4,55.4c0,7.6,1.6,15.2,4.6,22.2l46.6-29c2.6-1.6,5.8-1.6,8.4,0l46.7,29   c3.1-7,4.6-14.5,4.6-22.2C235.4,109.9,210.6,85.1,180,85.1z"/>
	<path id="Path-4" d="M180,36C122.3,35.9,75.5,82.7,75.4,140.4c0,0.1,0,0.1,0,0.2c0,17.9,4.8,33.1,12.5,47.8l27.7-17.3   c-4.6-9.5-7-20-7-30.6c0-39.4,31.9-71.3,71.3-71.3s71.3,31.9,71.3,71.3c0,10.6-2.4,21-7,30.6l27.7,17.3   c7.8-14.7,12.5-29.9,12.5-47.8C284.6,82.9,237.9,36.1,180.2,36C180.1,36,180.1,36,180,36z"/>
</g>
</g>
  </g>
</svg>
