<?xml version="1.0" encoding="UTF-8" standalone="no"?>
<!-- Created with Inkscape (http://www.inkscape.org/) -->

<svg
   version="1.1"
   id="svg2"
   width="77.333252"
   height="73.333496"
   viewBox="0 0 77.333252 73.333496"
   sodipodi:docname="TX_75MinuteTopo1_20251024_042638850913_TM_geo.pdf"
   xmlns:inkscape="http://www.inkscape.org/namespaces/inkscape"
   xmlns:sodipodi="http://sodipodi.sourceforge.net/DTD/sodipodi-0.dtd"
   xmlns="http://www.w3.org/2000/svg"
   xmlns:svg="http://www.w3.org/2000/svg">
  <defs
     id="defs6">
    <clipPath
       clipPathUnits="userSpaceOnUse"
       id="clipPath3142">
      <path
         d="m 6657.2,10676 v -333.2 h -464.4 v 333.2 z"
         id="path3140" />
    </clipPath>
    <clipPath
       clipPathUnits="userSpaceOnUse"
       id="clipPath3150">
      <path
         d="M 0,0 H 464.4 V 333.24 H 0 Z"
         id="path3148" />
    </clipPath>
    <clipPath
       clipPathUnits="userSpaceOnUse"
       id="clipPath197721">
      <g
         id="g197731"
         transform="matrix(5.5555556,0,0,-5.5555556,101.41737,11711.312)">
        <g
           id="g197729"
           transform="translate(6e-7,-6e-5)">
          <g
             id="g197727"
             transform="translate(6e-7,-6e-5)">
            <g
               id="g197725">
              <path
                 d="M -18.255126,20.036114 H 9581.7449 V 11620.036 H -18.255126 Z"
                 id="path197723" />
            </g>
          </g>
        </g>
      </g>
    </clipPath>
  </defs>
  <sodipodi:namedview
     id="namedview4"
     pagecolor="#ffffff"
     bordercolor="#000000"
     borderopacity="0.25"
     inkscape:showpageshadow="2"
     inkscape:pageopacity="0.0"
     inkscape:pagecheckerboard="0"
     inkscape:deskcolor="#d1d1d1"
     showgrid="false" />
  <g
     id="g10"
     inkscape:groupmode="layer"
     inkscape:label="Page 1"
     transform="matrix(1.3333333,0,0,-1.3333333,-1478.9932,325.13037)">
    <g
       id="g189948"
       transform="matrix(0.18,0,0,-0.18,-18.255126,2108.0361)"
       clip-path="url(#clipPath197721)">
      <g
         clip-path="url(#clipPath3142)"
         id="g189946">
        <g
           transform="matrix(5.5555556,0,0,-5.5555556,6425,10509.38)"
           id="g189938">
          <g
             transform="translate(-28.8,3)"
             id="g189936">
            <path
               d="M 0,0 H 0.1 L 0.2,0.1 H 0.1 V 0.2 0.3 L 0,0.4 H 0.1 V 0.5 H 0.2 0.4 0.7 1.1 1.2 1.5 1.9 2 2.3 2.8 3.3 3.5 3.9 4 h 1.3 0.1 0.1 1 0.1 0.1 0.2 0.7 0.3 0.9 0.5 2.2 0.2 0.5 0.5 0.1 1.8 0.2 0.3 0.5 0.1 V 0.9 1.1 1.2 3.2 3.5 3.6 3.7 3.8 4 4.1 4.2 4.5 4.8 4.9 5 5.1 5.4 5.5 5.7 5.9 6.8 7 7.3 7.4 7.7 l 0.1,0.9 V 8.9 9 9.1 9.2 9.3 9.5 9.6 10 v 0.1 0.3 0.2 0.2 0.1 0.1 0.1 0.1 0.1 0.1 0.1 0.7 0.2 0.1 0.4 0.1 0.3 0.9 0.1 0.1 0.4 0.3 0.3 0.3 0.2 0.9 0.1 0.1 0.1 0.1 0.1 0.2 2 0.6 0.3 0.1 0.1 0.1 1.2 1.4 1 h 0.2 3.3 0.4 0.1 0.4 0.5 0.4 0.2 0.1 0.3 0.2 0.1 2.4 0.1 0.1 0.3 0.1 0.1 0.2 0.1 0.1 0.1 0.2 0.2 0.3 0.3 0.2 0.1 0.3 0.1 0.2 0.1 0.1 0.1 0.6 0.4 0.3 0.1 v -2.4 -1 -1.4 -1.1 -1.2 -0.9 -1.5 -0.9 h 0.1 0.1 V 14 l 0.1,-0.1 0.1,-0.1 h 0.1 v -0.1 l 0.1,-0.1 0.1,-0.1 H 30 v -0.1 l 0.1,-0.1 v -0.1 h 0.1 v -0.1 h 0.1 L 30.4,13 v -0.1 h 0.1 0.1 0.1 0.1 0.1 0.1 v 0.1 0.1 h 0.1 0.1 0.1 L 31.4,13 h 0.1 l 0.1,-0.1 h 0.1 0.1 v 0.1 0.1 0.1 l 0.1,0.1 H 32 v -0.1 l 0.1,-0.1 V 13 h 0.1 v 0.1 h 0.1 L 32.4,13 v -0.1 h -0.1 0.1 0.1 v -0.1 -0.1 h 0.1 v -0.1 -0.1 -0.1 h 0.1 V 12.3 12.2 12.1 12 h 0.1 0.1 0.1 0.1 0.1 0.1 v -0.1 h 0.1 V 12 h 0.1 l 0.1,0.1 V 12 h 0.1 0.1 l 0.1,-0.1 v -0.1 h 0.2 v -0.1 h 0.1 0.1 0.1 l 0.1,-0.1 h 0.1 v -0.1 l 0.1,0.1 h 0.1 0.1 l 0.2,0.1 v 0.1 -0.1 h 0.1 0.1 0.1 l 0.1,-0.1 v -0.1 h 0.1 v -0.1 l 0.1,-0.1 0.1,-0.1 0.2,0.1 h 0.1 l 0.1,0.1 v 0.1 0.1 0.1 h 0.1 0.2 l 0.1,-0.1 h 0.1 0.1 0.1 L 37,11.5 h 0.1 0.1 0.1 v 0.1 0.1 h 0.1 0.1 v -0.1 -0.1 -0.1 l -0.1,-0.1 v -0.1 l 0.1,-0.1 V 11 10.9 h 0.1 0.1 0.1 0.1 0.1 0.1 v -0.1 h 0.1 L 38.1,10.7 V 10.6 H 38 38.1 V 10.5 10.4 H 38 v -0.1 h 0.1 0.1 l 0.1,-0.1 0.1,-0.1 h 0.1 0.2 l 0.1,0.1 v 0.1 h 0.1 v 0.1 H 39 v 0.1 0.1 h 0.1 0.1 v 0.1 l 0.1,0.1 h 0.1 0.1 l 0.1,-0.1 0.1,-0.1 v -0.1 -0.1 h 0.1 0.1 0.1 l 0.1,0.1 h 0.1 v -0.1 h 0.1 V 10.3 10.2 10.1 10 h 0.1 V 9.9 h 0.1 0.2 V 10 l 0.1,0.1 v 0.1 h 0.1 l 0.1,0.1 v -0.1 h 0.1 0.1 v 0.2 h 0.1 l 0.1,0.1 v -0.1 h 0.1 v -0.1 l 0.1,-0.2 V 10 H 41.5 41.4 V 9.9 9.8 h 0.1 V 9.7 9.6 L 41.6,9.5 V 9.4 h 0.1 0.1 0.1 V 9.5 9.6 9.7 9.8 9.9 H 42 42.1 V 10 l -0.2,0.1 0.1,0.1 0.1,-0.1 V 10 l 0.1,0.1 0.2,0.2 v 0.1 0.1 h -0.1 v 0.1 h 0.1 v 0.1 -0.1 h 0.1 0.1 v 0.1 h 0.1 v -0.1 l 0.1,-0.1 v -0.1 -0.1 -0.1 h 0.1 V 10.1 H 43 v 0.1 h 0.1 0.1 0.1 V 10.1 10 h 0.1 0.2 l 0.1,0.1 v 0.1 0.1 0.1 h 0.1 v 0.1 l 0.1,-0.1 V 10.3 H 44 44.1 V 10.2 H 44 V 10.1 H 43.9 44 L 44.1,10 44.2,9.9 h 0.1 L 44.4,10 V 9.9 9.8 l 0.1,-0.1 h 0.1 0.1 0.1 0.1 V 9.6 L 45,9.5 45.1,9.4 V 9.3 9.2 h 0.1 l 0.1,0.1 v 0.1 h 0.1 v 0.1 0.1 0.1 h 0.1 l 0.1,-0.1 h 0.1 0.1 0.1 L 46,9.7 V 9.8 H 45.9 V 9.9 H 46 V 10 h 0.1 0.1 0.1 v 0.1 h 0.1 L 46.5,10 v 0.1 h 0.1 0.1 v 0.1 h 0.1 v -0.1 h 0.1 v 0.1 H 47 v 0.1 h 0.1 v -0.1 h 0.1 l 0.1,-0.1 h 0.1 V 10 h 0.1 v 0.1 l 0.1,0.1 v -0.1 h 0.1 0.1 v 0.1 h -0.1 v 0.1 h 0.1 0.1 0.1 0.1 v 0.1 h 0.1 0.1 l 0.1,0.1 h 0.1 0.1 l 0.1,-0.1 v -0.1 h 0.1 0.1 v -0.1 l 0.1,0.1 h 0.1 L 49,10.2 h 0.1 0.2 0.1 0.1 0.1 v 0.1 h 0.1 l 0.1,-0.1 v 0.1 h 0.1 v 0.1 H 50 v 0.1 l 0.1,0.2 0.2,-0.1 h 0.1 0.1 v -0.1 h 0.1 -0.1 l 0.1,-0.1 h 0.1 v -0.1 0.1 h 0.1 v -0.1 l 0.1,-0.1 h 0.1 0.1 v -0.1 h 0.1 V 10.2 10.1 10 h 0.1 V 9.9 h 0.1 0.1 L 51.4,9.8 51.5,9.7 h 0.1 V 9.6 h 0.1 V 9.5 h 0.1 L 51.9,9.6 52,9.5 v 0.1 h 0.1 V 9.5 h 0.1 V 9.4 9.3 h 0.1 V 9.4 L 52.4,9.3 V 9.2 h 0.1 l 0.1,0.1 V 9.2 l 0.1,-0.1 v 0.1 h 0.1 0.1 0.1 V 9.1 h 0.1 V 9 H 53 53.1 53.2 V 8.9 h -0.1 0.1 0.1 V 9 h 0.1 0.1 V 8.9 8.8 h 0.1 V 8.7 h 0.2 V 8.6 L 53.7,8.5 h 0.2 V 8.6 H 54 V 8.5 h 0.1 l 0.1,0.2 0.1,-0.1 0.1,0.1 V 8.6 l 0.1,-0.1 v 0.2 h 0.2 0.1 L 54.9,8.5 55,8.6 h 0.2 L 55.3,8.5 V 8.2 8.1 7.9 7.8 7.6 7.5 7.4 7.2 7.1 7 6.9 6.8 6.7 6.5 6.4 6.1 5.8 5.4 5.3 5.2 5.1 5 4.6 4.5 4.1 3.9 3.8 3.7 3.6 3.4 3.1 3 2.9 2.8 2.7 2.5 2.4 1.9 1.6 1.5 1.3 1.2 1.1 0.8 0.5 0.4 0.5 L 55.4,0.4 55.6,0.1 55.7,0 h 0.1 v -0.1 h 0.1 V -0.2 H 56 v -0.1 -0.1 -0.1 h 0.1 l 0.1,-0.1 v -0.1 -0.1 -0.1 h 0.1 V -1 -1.1 -1.2 h -0.1 v -0.1 h 0.1 v -0.2 h -0.1 v -0.1 -0.1 l 0.1,-0.1 0.1,-0.1 V -2 h 0.1 0.1 0.1 v -0.1 l -0.1,-0.1 0.1,-0.2 h 0.1 v -0.1 l 0.1,-0.1 V -2.7 -2.8 -3 l -0.1,-0.1 h 0.1 L 57,-3.2 v -0.1 h 0.1 0.1 v -0.1 -0.1 -0.1 -0.1 l 0.1,-0.1 0.1,0.1 h 0.1 V -3.8 -3.9 -4 -4.1 h -0.1 v -0.1 h 0.1 v -0.1 h 0.1 -0.1 v -0.1 h 0.1 v -0.1 l -0.1,-0.1 h -0.1 v -0.1 h -0.1 l 0.1,-0.1 0.1,-0.1 V -5 H 57.4 V -5.1 -5.2 -5.3 -5.5 -5.6 H 57.3 V -5.7 -5.8 L 57.2,-5.9 57.1,-6 h 0.1 V -6.1 H 57.1 V -6.2 -6.3 H 57 L 56.9,-6.4 V -6.5 -6.6 -6.7 H 56.8 56.7 V -6.8 -6.9 -7 h -0.1 0.1 v -0.1 -0.1 l 0.1,-0.2 V -7.5 L 56.7,-7.6 56.6,-7.7 H 56.5 V -7.8 -7.9 -8 l 0.1,-0.2 h 0.1 l 0.1,-0.1 h -0.1 l 0.1,-0.1 v -0.1 l -0.1,-0.1 v -0.1 -0.1 h 0.1 V -8.9 -9 -9.1 l -0.1,-0.1 -0.1,-0.1 0.1,-0.1 h 0.1 -0.1 l -0.1,-0.1 v -0.1 l -0.2,-0.2 -0.1,-0.1 v -0.1 -0.1 l -0.1,-0.1 v -0.1 l -0.1,-0.1 -0.1,-0.1 h -0.1 l -0.1,-0.1 v -0.1 -0.1 l 0.1,-0.1 H 56 55.9 V -11 H 56 l 0.1,-0.1 0.1,-0.2 H 56.1 56 55.8 55.5 l -0.3,-0.1 h -0.1 l -0.2,-0.1 -1,-0.4 h -0.1 l -0.5,-0.3 -0.4,-0.2 -0.2,-0.1 -0.2,-0.1 h -0.1 v -0.1 l -0.1,-0.1 v -0.1 H 52.2 52.1 52 v 0.1 h 0.1 l 0.1,0.1 0.1,0.1 0.1,0.1 0.1,0.1 v 0.1 h 0.1 0.1 0.1 0.1 v 0.1 0.1 h 0.1 0.1 0.1 0.1 v 0.1 h -0.1 l -0.1,0.1 -0.1,0.1 v -0.1 H 52.9 L 52.7,-12 h -0.3 -0.1 l -0.1,-0.1 H 52.1 52 v 0.1 h 0.1 l 0.1,0.1 v 0.1 l 0.2,0.2 v 0.3 0.2 0.2 h -0.1 v 0.1 H 52.2 L 52,-10.9 h -0.1 l -0.2,-0.2 v -0.1 -0.1 l -0.1,-0.1 h -0.1 -0.1 v 0.1 0.1 h -0.1 -0.1 v -0.1 l -0.1,-0.1 -0.1,-0.1 v -0.1 l 0.1,-0.1 h 0.1 L 51.1,-11.8 51,-11.9 V -12 l 0.1,-0.1 0.1,-0.1 h 0.1 0.2 v -0.1 h -0.1 -0.1 v -0.1 l 0.1,-0.1 0.2,-0.1 v -0.3 l -0.1,-0.1 0.1,-0.2 -0.2,-0.1 h -0.1 l -0.3,-0.3 -0.2,-0.1 -0.1,-0.2 -0.1,0.2 h -0.1 l -0.1,-0.1 v -0.2 -0.1 -0.1 l 0.1,-0.1 0.1,0.2 h 0.1 l 0.4,0.3 v 0.1 l 0.5,0.4 0.1,0.1 h 0.2 v 0.1 0.1 h 0.1 0.1 0.1 0.1 v -0.1 L 52.1,-13.2 52,-13.3 H 51.9 L 51,-14 l -0.3,-0.2 -0.1,-0.1 h -0.1 v -0.1 l -0.3,-0.2 -0.2,-0.2 -0.1,-0.1 -0.1,-0.1 -0.1,-0.1 -0.2,-0.1 -0.1,-0.1 v -0.1 h -0.1 -0.1 l -0.2,-0.1 -0.1,-0.1 -0.4,-0.2 -0.3,-0.2 h -0.1 l -0.6,-0.4 -0.3,-0.1 -0.5,-0.3 -0.3,-0.1 -0.6,-0.3 h -0.1 l -0.1,-0.1 -0.1,-0.1 -0.1,-0.1 -0.1,-0.1 H 45.2 L 45,-17.7 v -0.1 l -0.1,-0.1 -0.1,-0.2 -0.2,-0.1 -0.7,-0.4 -0.4,-0.3 -0.3,-0.2 -0.2,-0.3 -0.2,-0.1 -0.3,-0.3 -0.2,-0.3 -0.2,-0.4 -0.2,-0.2 -0.2,-0.4 -0.3,-0.6 -0.1,-0.1 -0.1,-0.3 -0.2,-0.4 -0.2,-0.5 v -0.2 l -0.1,-0.3 v -0.4 -0.4 -0.4 -0.5 l 0.1,-0.4 0.1,-0.5 0.1,-0.4 v -0.1 l 0.2,-0.4 0.1,-0.5 0.1,-0.5 0.2,-0.7 v -0.4 l -0.1,0.2 -0.1,0.6 -0.1,0.5 -0.1,0.3 v 0.2 l -0.1,0.4 -0.1,0.2 -0.1,0.1 -0.1,0.3 -0.1,0.4 -0.1,0.3 v 0.5 0.5 0.6 0.4 l 0.1,0.4 v 0.3 l 0.2,0.4 0.1,0.4 0.1,0.3 0.1,0.1 0.1,0.2 0.2,0.3 0.2,0.4 0.1,0.1 -0.1,0.1 v 0.1 l 0.2,0.2 0.1,0.2 0.2,0.1 0.2,0.2 v 0.2 l 0.1,0.1 0.1,0.1 v 0.1 l 0.1,0.1 h 0.1 v 0.1 0.1 l 0.2,-0.1 0.1,0.1 v 0.2 l 0.1,0.1 h 0.3 l 0.1,0.1 0.2,0.1 0.2,0.1 v 0.1 l 0.1,0.1 h 0.1 0.1 v 0.1 h 0.1 l 0.2,0.1 h 0.1 0.1 v 0.1 l -0.1,0.1 0.2,0.1 v 0.1 h -0.2 l -0.2,-0.2 h -0.2 l -0.2,-0.1 -0.1,-0.2 h -0.1 l -0.1,-0.1 -0.1,0.1 -0.1,0.1 v 0.1 0.2 h -0.1 -0.1 v 0.1 h -0.1 v -0.1 l -0.1,-0.1 v -0.1 -0.1 -0.1 -0.1 h -0.1 l 0.1,-0.1 v -0.1 -0.2 h -0.1 l -0.1,-0.1 -0.1,-0.1 -0.1,-0.1 -0.1,-0.1 -0.1,-0.1 h -0.1 l -0.2,0.1 -0.1,0.1 v 0.1 l -0.5,-0.2 -0.3,-0.3 0.1,-0.1 0.1,-0.1 h 0.1 v 0.1 h 0.1 v 0.1 h 0.1 l 0.2,0.1 v 0.1 h 0.1 v -0.1 -0.1 -0.1 -0.1 h -0.1 v -0.1 l -0.1,-0.1 -0.2,-0.4 h -0.1 v -0.1 l -0.1,-0.1 -0.1,-0.2 v -0.1 h -0.1 -0.1 v 0.1 0.1 l -0.1,0.1 H 41.1 41 40.9 40.8 40.7 40.3 40.1 v -0.1 -0.1 l 0.1,-0.1 h 0.3 l 0.2,0.1 -0.1,-0.1 v -0.2 l 0.1,-0.2 h 0.1 l 0.1,-0.1 0.3,-0.1 v -0.1 H 41.1 L 41,-21.6 v -0.1 l -0.1,-0.1 -0.1,-0.2 v -0.1 -0.2 l -0.1,-0.1 v -0.1 -0.1 l -0.1,-0.1 v -0.2 -0.1 h -0.1 l -0.1,-0.1 h -0.1 -0.1 l -0.1,-0.2 -0.1,0.1 H 39.9 40 v 0.1 h 0.1 v 0.1 l 0.1,0.1 v 0.1 H 40.1 L 40,-22.9 V -23 l -0.2,-0.1 -0.2,-0.1 h -0.1 v -0.1 -0.1 h 0.1 0.1 0.1 l 0.1,-0.1 H 40 l 0.1,0.1 h 0.1 0.1 v 0.1 h 0.2 l -0.1,-0.3 v -0.2 -0.4 -0.5 L 40.3,-25 v -0.3 -0.2 h -0.1 v -0.3 l 0.1,-0.1 V -26 l 0.1,-0.4 v -0.1 -0.1 -0.1 l 0.1,-0.1 v -0.1 -0.1 -0.2 h 0.2 l 0.1,-0.3 0.1,-0.2 0.1,-0.3 0.1,-0.1 -0.1,-0.1 -0.1,-0.1 v -0.1 l 0.1,-0.1 v -0.1 -0.1 -0.1 -0.1 l 0.1,-0.1 v -0.1 h 0.1 0.2 l 0.1,-0.1 h 0.1 v -0.1 -0.1 l 0.1,-0.2 v -0.1 h -0.1 -0.1 -0.1 -0.1 -0.1 -0.1 v -0.1 H 41 40.9 40.8 l -0.1,-0.1 v -0.1 -0.1 -0.1 -0.1 h -0.1 -0.1 l -0.1,0.1 h -0.1 v 0.1 0.1 l -0.1,-0.1 H 40.1 L 40,-30 v 0.1 h -0.1 v 0.1 h -0.1 v 0.1 h -0.1 l -0.1,0.1 v 0.1 h -0.1 v 0.1 h -0.1 -0.1 l -0.1,0.1 H 39 38.9 38.8 v 0.1 H 38.7 38.6 38.5 38.4 38.3 38.2 38.1 38 37.9 37.8 v -0.1 l -0.2,0.1 v 0.1 -0.1 h -0.1 v 0.1 l -0.1,-0.1 h -0.1 l -0.2,0.1 v -0.1 H 37 v 0.1 h -0.1 -0.1 l -0.1,0.1 0.1,0.1 h -0.2 -0.1 v 0.1 l -0.1,0.1 h 0.1 -0.1 -0.2 v 0.1 h -0.1 l -0.1,0.1 v 0.1 h -0.1 -0.1 -0.1 -0.1 l -0.1,0.1 v -0.1 l -0.1,0.1 v 0.1 h -0.1 l -0.1,-0.1 H 35.1 35 34.9 l 0.1,0.1 h -0.1 -0.1 v 0.1 l -0.1,0.1 v 0.1 h -0.1 -0.1 l -0.1,0.1 v 0.1 H 34.3 34.2 34.1 34 l -0.1,0.1 h -0.1 v -0.1 0.1 h -0.1 v 0.1 l -0.1,-0.1 h -0.1 v 0.1 h -0.1 -0.1 -0.1 -0.1 v 0.1 H 33 l 0.1,0.1 v 0.1 0.2 l -0.1,0.1 h -0.1 -0.1 v 0.1 0.1 0.2 l -0.1,0.2 -0.1,0.2 v 0.2 l -0.1,0.1 v 0.2 l -0.1,0.1 v 0.1 l -0.1,0.1 h -0.1 l -0.1,0.1 v 0.1 0.1 l -0.1,0.1 h -0.1 -0.1 v 0.1 l 0.1,0.1 h -0.1 v 0.1 l -0.1,0.1 h -0.1 v 0.1 0.1 0.1 h 0.1 v 0.1 h -0.1 v 0.1 h 0.1 l -0.1,0.1 v 0.1 h 0.1 v 0.1 l -0.1,0.1 v 0.1 0.1 0.1 h -0.1 -0.1 v 0.1 0.1 h -0.1 -0.1 v 0.1 h 0.1 v 0.1 l 0.1,0.1 v 0.1 0.1 0.2 0.1 0.1 0.1 l -0.1,-0.1 h -0.1 l 0.1,0.3 v 0.1 h -0.1 v 0.2 H 31.1 31 v 0.1 h -0.1 v 0.1 l -0.1,-0.1 h -0.1 -0.1 v 0.1 h 0.1 -0.1 -0.1 -0.1 v 0.1 l -0.1,0.1 -0.1,0.1 V -21 H 30.1 30 v 0.1 0.1 h -0.1 v -0.1 l -0.1,0.1 v 0.1 h -0.1 v 0.2 0.1 h -0.1 v 0.1 0.1 0.1 h -0.1 l -0.1,0.1 v 0.1 l 0.1,0.1 h -0.2 l -0.1,0.1 -0.1,0.1 v 0.1 0.1 l -0.1,0.1 h -0.1 v 0.1 0.1 h -0.1 v 0.1 0.1 h -0.2 -0.1 l -0.1,0.1 h -0.1 v 0.1 h -0.1 v 0.1 0.1 h -0.1 l -0.1,0.1 h -0.1 v 0.1 0.1 0.1 l -0.1,0.1 v 0.1 h -0.1 v 0.1 h -0.1 v 0.1 l 0.1,0.1 v 0.1 l -0.1,0.1 -0.1,0.1 h 0.1 l 0.1,0.1 h -0.1 l -0.1,0.1 h -0.1 v 0.1 0.1 0.1 l -0.1,0.1 h -0.1 v 0.1 0.1 h -0.1 v 0.1 H 27 l -0.1,0.1 v 0.1 0.1 0.1 0.1 h -0.1 v 0.1 0.1 0.1 h -0.1 -0.1 v 0.1 0.1 l -0.1,0.1 v 0.1 h -0.1 l -0.1,0.1 h 0.1 l -0.1,0.1 v 0.1 0.1 0.1 0.1 l -0.1,0.1 v 0.1 0.1 0.1 l -0.1,0.1 H 26 l -0.1,0.1 v 0.1 h -0.1 v 0.1 0.1 l -0.1,0.1 v 0.1 l -0.2,0.1 h -0.1 v 0.1 h -0.1 v 0.1 h -0.1 l -0.1,0.1 H 25 v 0.1 h -0.1 v 0.1 h -0.1 -0.1 v 0.2 h -0.1 v 0.1 l -0.1,0.1 v 0.1 h -0.1 -0.1 l -0.1,0.1 -0.1,-0.1 v 0.1 l -0.1,0.1 v 0.1 h -0.1 -0.1 -0.1 -0.1 v 0.1 l 0.1,0.1 v 0.2 0.1 h -0.1 -0.1 l 0.1,-0.1 -0.1,-0.2 -0.1,0.1 v 0.1 0.2 0.1 h -0.1 -0.1 l -0.1,0.2 -0.1,0.1 v 0.1 h -0.1 v 0.1 h -0.1 l -0.1,0.1 -0.1,-0.1 h -0.1 -0.1 v 0.1 0.1 h -0.1 l -0.1,-0.1 v -0.1 l -0.1,0.1 -0.1,-0.1 h -0.1 -0.2 -0.1 -0.1 v 0.1 h -0.1 -0.1 -0.1 v 0.1 l -0.1,-0.1 -0.1,0.1 h -0.1 -0.1 -0.1 v -0.1 0.1 h -0.1 -0.1 -0.1 -0.1 -0.1 v -0.1 h -0.1 l -0.1,0.1 h -0.1 -0.1 l -0.1,0.1 -0.1,0.1 h -0.1 -0.1 l -0.1,0.1 h -0.1 -0.1 v 0.1 H 19 l -0.1,-0.1 h -0.1 v -0.1 -0.1 l -0.1,-0.1 v -0.1 -0.1 h -0.1 l -0.1,0.1 h -0.2 -0.1 -0.1 v -0.1 L 18,-11 v 0.1 H 17.9 L 17.8,-11 h -0.1 -0.1 -0.1 -0.1 v -0.1 -0.1 h -0.1 v -0.1 l -0.1,-0.2 -0.1,-0.1 v -0.1 -0.1 0.1 H 17 v -0.1 -0.1 -0.1 l -0.2,-0.1 v -0.1 -0.1 l -0.1,-0.2 v -0.1 h 0.1 v -0.1 l -0.1,-0.1 v -0.1 l -0.1,-0.1 -0.1,0.1 v -0.1 -0.2 -0.1 h -0.1 v -0.1 l 0.1,-0.1 h 0.1 v -0.1 h -0.1 v -0.1 h -0.1 v 0.1 -0.1 -0.1 h -0.1 v 0.1 l -0.1,-0.1 H 16.1 16 v -0.1 -0.1 l -0.1,-0.1 v -0.1 h -0.1 l -0.1,-0.1 -0.1,-0.1 -0.1,-0.1 0.1,-0.1 h -0.1 v -0.1 -0.1 h -0.1 l -0.1,-0.1 v 0.1 H 15 14.9 14.8 14.7 14.8 l -0.1,0.1 h -0.1 v 0.1 h -0.1 v 0.1 -0.1 h -0.1 -0.1 l -0.2,0.1 v 0.1 H 14 13.9 v 0.1 0.1 l -0.1,0.1 h -0.1 v 0.1 l -0.1,0.1 -0.1,-0.1 h -0.1 l -0.1,0.1 h -0.1 -0.1 l -0.1,0.1 h -0.1 -0.1 l -0.1,0.1 v 0.1 h -0.1 v 0.2 h -0.1 -0.1 l -0.1,0.1 H 12.2 12.1 12 l -0.1,0.1 h -0.1 -0.1 l -0.3,0.1 v 0.1 h -0.1 l -0.1,0.1 h -0.1 v 0.1 H 11 l -0.1,0.1 h -0.1 v 0.1 0.1 h -0.1 v 0.1 l -0.1,0.1 v 0.1 h -0.1 v 0.1 H 10.3 10.2 10.1 L 10,-12 H 9.9 v 0.1 l -0.3,0.2 -0.1,0.1 -0.1,0.1 -0.2,0.2 h 0.1 l -0.1,0.2 v 0.1 l -0.1,0.1 -0.1,0.2 -0.1,0.1 v 0.1 l -0.1,0.1 -0.1,0.1 v 0.1 l -0.1,0.1 v 0.2 0.1 0.2 H 8.5 v 0.1 0.1 h 0.1 v 0.1 0.1 0.2 0.1 0.1 l -0.1,0.2 v 0.1 L 8.4,-8.4 H 8.3 v 0.1 0.1 L 8.2,-8.1 8.1,-8 H 8 v 0.1 0.1 H 7.9 l -0.1,0.1 v 0.1 h 0.1 l -0.1,0.1 v 0.1 0.1 0.2 L 7.7,-7 v 0.1 0.1 L 7.6,-6.6 7.5,-6.7 7.4,-6.6 H 7.3 v 0.1 0.1 l -0.1,0.1 v 0.1 H 7.1 7 v -0.1 0.1 L 6.8,-6.1 V -6 H 6.7 v 0.1 H 6.6 6.5 v 0.1 H 6.4 v 0.1 H 6.3 v 0.1 H 6.2 L 6.1,-5.7 6,-5.5 H 5.9 V -5.6 H 5.8 v 0.1 H 5.7 L 5.6,-5.4 H 5.5 v 0.1 0.1 L 5.4,-5.1 H 5.3 L 5.1,-4.9 H 5 v 0.1 L 4.9,-4.7 H 4.8 l -0.1,0.2 v 0.2 H 4.6 v 0.1 L 4.5,-4.1 H 4.4 V -4 L 4.1,-3.9 4,-3.8 H 3.9 3.8 v 0.1 0.1 H 3.7 l -0.1,0.1 v 0.1 L 3.4,-3.2 H 3.3 v 0.1 L 3.2,-3 H 3.1 v 0.1 0.1 H 3 l -0.2,0.1 v 0.1 H 2.5 L 2.4,-2.5 H 2.3 l -0.2,0.1 v 0.1 H 1.9 v 0.1 0.1 L 1.8,-2 v 0.1 L 1.7,-1.8 H 1.6 v 0.1 L 1.5,-1.5 1.4,-1.2 1.3,-1.1 1.2,-1 v 0.1 L 1,-0.8 H 0.9 v 0.1 L 0.8,-0.8 H 0.7 L 0.6,-0.7 H 0.5 v 0.1 0.1 H 0.4 0.3 v 0.1 H 0.2 v 0.1 H 0.1 v 0.1 H 0 0.1 v 0.1 H 0 Z"
               style="fill:none;stroke:#000000;stroke-width:0.4;stroke-linecap:round;stroke-linejoin:round;stroke-miterlimit:10;stroke-dasharray:none;stroke-opacity:1"
               id="path189934" />
          </g>
        </g>
        <g
           transform="matrix(5.5555556,0,0,-5.5555556,6425,10509.38)"
           id="g189944">
          <g
             transform="translate(16.6,-4.2)"
             id="g189942">
            <path
               d="M 0,0 H -0.5 V 0.6 H 0 Z"
               style="fill:#ff0000;fill-opacity:1;fill-rule:evenodd;stroke:#ff0000;stroke-width:3;stroke-linecap:square;stroke-linejoin:miter;stroke-miterlimit:10;stroke-dasharray:none;stroke-opacity:1"
               id="path189940" />
          </g>
        </g>
      </g>
    </g>
    <g
       transform="matrix(0.18,0,0,-0.18,1096.4489,246.3393)"
       id="g189966">
      <g
         id="g189954" />
      <g
         id="g189964">
        <g
           clip-path="url(#clipPath3150)"
           id="g189962">
          <g
             id="g189960">
            <text
               xml:space="preserve"
               transform="translate(194.4704,178.0538)"
               style="font-variant:normal;font-weight:normal;font-stretch:normal;font-size:33.3336px;font-family:'Trebuchet MS';-inkscape-font-specification:TrebuchetMS;writing-mode:lr-tb;fill:#000000;fill-opacity:1;fill-rule:nonzero;stroke:none"
               id="text189958"><tspan
                 x="0 19.366821 37.233631 55.800446 75.46727"
                 y="0"
                 sodipodi:role="line"
                 id="tspan189956">TEXAS</tspan></text>
          </g>
        </g>
      </g>
    </g>
  </g>
</svg>
