<?xml version="1.0" encoding="UTF-8" standalone="no"?>
<!-- Created with Inkscape (http://www.inkscape.org/) -->

<svg
   version="1.1"
   id="svg2"
   width="77.462646"
   height="91.862549"
   viewBox="0 0 77.462646 91.862549"
   sodipodi:docname="us national grid.svg"
   inkscape:version="1.2.2 (732a01da63, 2022-12-09)"
   xmlns:inkscape="http://www.inkscape.org/namespaces/inkscape"
   xmlns:sodipodi="http://sodipodi.sourceforge.net/DTD/sodipodi-0.dtd"
   xmlns="http://www.w3.org/2000/svg"
   xmlns:svg="http://www.w3.org/2000/svg">
  <defs
     id="defs6">
    <clipPath
       clipPathUnits="userSpaceOnUse"
       id="clipPath197228">
      <g
         id="g197238">
        <g
           id="g197236">
          <g
             id="g197234">
            <g
               id="g197232">
              <path
                 d="M -18.255126,20.036114 H 9581.7449 V 11620.036 H -18.255126 Z"
                 id="path197230" />
            </g>
          </g>
        </g>
      </g>
    </clipPath>
    <clipPath
       clipPathUnits="userSpaceOnUse"
       id="clipPath197251">
      <g
         id="g197261">
        <g
           id="g197259">
          <g
             id="g197257">
            <g
               id="g197255">
              <path
                 d="M -18.255126,20.036114 H 9581.7449 V 11620.036 H -18.255126 Z"
                 id="path197253" />
            </g>
          </g>
        </g>
      </g>
    </clipPath>
    <clipPath
       clipPathUnits="userSpaceOnUse"
       id="clipPath197274">
      <g
         id="g197284">
        <g
           id="g197282">
          <g
             id="g197280">
            <g
               id="g197278">
              <path
                 d="M -18.255126,20.036114 H 9581.7449 V 11620.036 H -18.255126 Z"
                 id="path197276" />
            </g>
          </g>
        </g>
      </g>
    </clipPath>
  </defs>
  <sodipodi:namedview
     id="namedview4"
     pagecolor="#ffffff"
     bordercolor="#000000"
     borderopacity="0.25"
     inkscape:showpageshadow="2"
     inkscape:pageopacity="0.0"
     inkscape:pagecheckerboard="0"
     inkscape:deskcolor="#d1d1d1"
     showgrid="false"
     inkscape:zoom="6.3811807"
     inkscape:cx="35.103222"
     inkscape:cy="51.16608"
     inkscape:window-width="1914"
     inkscape:window-height="958"
     inkscape:window-x="-5"
     inkscape:window-y="40"
     inkscape:window-maximized="0"
     inkscape:current-layer="text190616" />
  <g
     id="g10"
     inkscape:groupmode="layer"
     inkscape:label="Page 1"
     transform="matrix(1.3333333,0,0,-1.3333333,-698.92847,136.24609)">
    <path
       d="m 524.44487,33.536114 v 68.399996 h 57.6 V 33.536114 h -57.6"
       style="fill:none;stroke:#000000;stroke-width:0.497;stroke-linecap:butt;stroke-linejoin:miter;stroke-miterlimit:10;stroke-dasharray:none;stroke-opacity:1"
       id="path190582"
       clip-path="url(#clipPath197228)" />
    <path
       d="m 524.44487,93.436114 h 57.6"
       style="fill:none;stroke:#000000;stroke-width:0.497;stroke-linecap:butt;stroke-linejoin:miter;stroke-miterlimit:10;stroke-dasharray:none;stroke-opacity:1"
       id="path190588"
       clip-path="url(#clipPath197251)" />
    <path
       d="m 527.74487,56.236114 h 51"
       style="fill:none;stroke:#000000;stroke-width:0.497;stroke-linecap:butt;stroke-linejoin:miter;stroke-miterlimit:10;stroke-dasharray:none;stroke-opacity:1"
       id="path190594"
       clip-path="url(#clipPath197274)" />
    <g
       aria-label="U.S. National Grid"
       transform="scale(1,-1)"
       id="text190602"
       style="font-size:5px;font-family:Arial;-inkscape-font-specification:Arial-BoldMT">
      <path
         d="m 534.72687,-99.529816 h 0.47363 v 2.067871 q 0,0.539551 -0.12207,0.856934 -0.12207,0.317383 -0.44189,0.517578 -0.31739,0.197754 -0.83497,0.197754 -0.50292,0 -0.82275,-0.17334 -0.31982,-0.17334 -0.45654,-0.500488 -0.13672,-0.32959 -0.13672,-0.898438 v -2.067871 h 0.47363 v 2.06543 q 0,0.466309 0.0855,0.688477 0.0879,0.219726 0.29785,0.339355 0.21241,0.119629 0.51758,0.119629 0.52246,0 0.74463,-0.236816 0.22217,-0.236817 0.22217,-0.910645 z"
         id="path348" />
      <path
         d="m 536.05658,-95.950714 v -0.500488 h 0.50049 v 0.500488 z"
         id="path350" />
      <path
         d="m 537.2171,-97.100616 0.44678,-0.03906 q 0.0317,0.268555 0.14648,0.441895 0.11719,0.170898 0.36133,0.27832 0.24414,0.10498 0.54932,0.10498 0.27099,0 0.47851,-0.08057 0.20752,-0.08057 0.30762,-0.219727 0.10254,-0.141601 0.10254,-0.307617 0,-0.168457 -0.0977,-0.292969 -0.0977,-0.126953 -0.32226,-0.212402 -0.14404,-0.05615 -0.63721,-0.17334 -0.49316,-0.119629 -0.69092,-0.224609 -0.25634,-0.134277 -0.3833,-0.332031 -0.12451,-0.200196 -0.12451,-0.446778 0,-0.270996 0.15381,-0.505371 0.15381,-0.236816 0.44922,-0.358887 0.29541,-0.12207 0.65674,-0.12207 0.39795,0 0.70068,0.129395 0.30518,0.126953 0.46875,0.375976 0.16357,0.249024 0.17578,0.563965 l -0.4541,0.03418 q -0.0366,-0.339356 -0.24902,-0.512696 -0.20996,-0.173339 -0.62256,-0.173339 -0.42969,0 -0.62744,0.158691 -0.19532,0.15625 -0.19532,0.378418 0,0.192871 0.13916,0.317383 0.13672,0.124512 0.71289,0.256347 0.57862,0.129395 0.79346,0.227051 0.3125,0.144043 0.46143,0.366211 0.14892,0.219727 0.14892,0.507813 0,0.285644 -0.16357,0.53955 -0.16358,0.251465 -0.47119,0.393067 -0.30518,0.13916 -0.68848,0.13916 -0.48584,0 -0.81543,-0.141602 -0.32715,-0.141601 -0.51514,-0.424804 -0.18554,-0.285645 -0.19531,-0.644531 z"
         id="path352" />
      <path
         d="m 540.78156,-95.950714 v -0.500488 h 0.50048 v 0.500488 z"
         id="path354" />
      <path
         d="m 543.48834,-95.950714 v -3.579102 h 0.48584 l 1.87988,2.810059 v -2.810059 h 0.45411 v 3.579102 h -0.48584 l -1.87989,-2.8125 v 2.8125 z"
         id="path356" />
      <path
         d="m 548.73895,-96.270538 q -0.24414,0.207519 -0.47119,0.292968 -0.22461,0.08545 -0.4834,0.08545 -0.42724,0 -0.65674,-0.20752 -0.22949,-0.209961 -0.22949,-0.534668 0,-0.19043 0.0854,-0.34668 0.0879,-0.158691 0.22705,-0.253906 0.1416,-0.09521 0.31739,-0.144043 0.12939,-0.03418 0.39062,-0.06592 0.53223,-0.06348 0.78369,-0.151367 0.002,-0.09033 0.002,-0.114746 0,-0.268555 -0.12451,-0.378418 -0.16846,-0.148926 -0.50049,-0.148926 -0.31006,0 -0.45898,0.109864 -0.14649,0.107421 -0.21729,0.3833 l -0.42968,-0.05859 q 0.0586,-0.275879 0.19287,-0.444336 0.13427,-0.170899 0.38818,-0.261231 0.25391,-0.09277 0.58838,-0.09277 0.33203,0 0.53955,0.07813 0.20752,0.07813 0.30518,0.197754 0.0977,0.117187 0.13671,0.297851 0.022,0.112305 0.022,0.405274 v 0.585937 q 0,0.612793 0.0269,0.776367 0.0293,0.161133 0.11231,0.310059 h -0.45899 q -0.0684,-0.136719 -0.0879,-0.319824 z m -0.0366,-0.981446 q -0.23926,0.09766 -0.71777,0.166016 -0.271,0.03906 -0.3833,0.08789 -0.11231,0.04883 -0.17334,0.144043 -0.061,0.09277 -0.061,0.207519 0,0.175781 0.13184,0.292969 0.13428,0.117187 0.39062,0.117187 0.25391,0 0.45166,-0.109863 0.19776,-0.112305 0.29053,-0.305176 0.0708,-0.148925 0.0708,-0.439453 z"
         id="path358" />
      <path
         d="m 550.78656,-96.343781 0.0635,0.388184 q -0.18555,0.03906 -0.33203,0.03906 -0.23926,0 -0.3711,-0.07568 -0.13183,-0.07568 -0.18555,-0.197754 -0.0537,-0.124512 -0.0537,-0.520019 v -1.4917 h -0.32226 v -0.341797 h 0.32226 v -0.642089 l 0.43702,-0.263672 v 0.905761 h 0.44189 v 0.341797 h -0.44189 v 1.516114 q 0,0.187988 0.022,0.241699 0.0244,0.05371 0.0757,0.08545 0.0537,0.03174 0.15137,0.03174 0.0732,0 0.19287,-0.01709 z"
         id="path360" />
      <path
         d="m 551.49451,-99.024445 v -0.505371 h 0.43945 v 0.505371 z m 0,3.073731 v -2.592774 h 0.43945 v 2.592774 z"
         id="path362" />
      <path
         d="m 552.71851,-97.247101 q 0,-0.720215 0.40039,-1.066894 0.33447,-0.288086 0.81543,-0.288086 0.53466,0 0.87402,0.351562 0.33936,0.349121 0.33936,0.966797 0,0.500488 -0.15137,0.788574 -0.14893,0.285645 -0.43701,0.444336 -0.28565,0.158692 -0.625,0.158692 -0.54444,0 -0.88135,-0.349121 -0.33447,-0.349122 -0.33447,-1.00586 z m 0.45166,0 q 0,0.498047 0.21728,0.74707 0.21729,0.246583 0.54688,0.246583 0.32714,0 0.54443,-0.249024 0.21728,-0.249023 0.21728,-0.759277 0,-0.480957 -0.21972,-0.727539 -0.21729,-0.249024 -0.54199,-0.249024 -0.32959,0 -0.54688,0.246582 -0.21728,0.246582 -0.21728,0.744629 z"
         id="path364" />
      <path
         d="m 555.93707,-95.950714 v -2.592774 h 0.39551 v 0.368653 q 0.28565,-0.427246 0.8252,-0.427246 0.23437,0 0.42968,0.08545 0.19776,0.08301 0.29541,0.219726 0.0977,0.136719 0.13672,0.324708 0.0244,0.12207 0.0244,0.427246 v 1.594238 h -0.43946 v -1.577149 q 0,-0.268554 -0.0513,-0.40039 -0.0513,-0.134278 -0.1831,-0.212403 -0.1294,-0.08057 -0.30518,-0.08057 -0.28076,0 -0.48584,0.178223 -0.20263,0.178222 -0.20263,0.676269 v 1.416016 z"
         id="path366" />
      <path
         d="m 560.68396,-96.270538 q -0.24414,0.207519 -0.47119,0.292968 -0.22461,0.08545 -0.4834,0.08545 -0.42725,0 -0.65674,-0.20752 -0.22949,-0.209961 -0.22949,-0.534668 0,-0.19043 0.0855,-0.34668 0.0879,-0.158691 0.22705,-0.253906 0.1416,-0.09521 0.31738,-0.144043 0.1294,-0.03418 0.39063,-0.06592 0.53222,-0.06348 0.78369,-0.151367 0.002,-0.09033 0.002,-0.114746 0,-0.268555 -0.12451,-0.378418 -0.16846,-0.148926 -0.50049,-0.148926 -0.31006,0 -0.45898,0.109864 -0.14649,0.107421 -0.21729,0.3833 l -0.42969,-0.05859 q 0.0586,-0.275879 0.19287,-0.444336 0.13428,-0.170899 0.38819,-0.261231 0.2539,-0.09277 0.58838,-0.09277 0.33203,0 0.53955,0.07813 0.20752,0.07813 0.30517,0.197754 0.0977,0.117187 0.13672,0.297851 0.022,0.112305 0.022,0.405274 v 0.585937 q 0,0.612793 0.0269,0.776367 0.0293,0.161133 0.1123,0.310059 h -0.45898 q -0.0684,-0.136719 -0.0879,-0.319824 z m -0.0366,-0.981446 q -0.23926,0.09766 -0.71777,0.166016 -0.271,0.03906 -0.38331,0.08789 -0.1123,0.04883 -0.17334,0.144043 -0.061,0.09277 -0.061,0.207519 0,0.175781 0.13184,0.292969 0.13427,0.117187 0.39062,0.117187 0.25391,0 0.45166,-0.109863 0.19775,-0.112305 0.29053,-0.305176 0.0708,-0.148925 0.0708,-0.439453 z"
         id="path368" />
      <path
         d="m 561.76227,-95.950714 v -3.579102 h 0.43945 v 3.579102 z"
         id="path370" />
      <path
         d="m 566.28302,-97.354523 v -0.419922 l 1.51611,-0.0024 v 1.328125 q -0.34912,0.27832 -0.72021,0.419922 -0.3711,0.13916 -0.76172,0.13916 -0.52734,0 -0.95947,-0.224609 -0.42969,-0.227051 -0.64942,-0.654297 -0.21972,-0.427246 -0.21972,-0.95459 0,-0.522461 0.21728,-0.974121 0.21973,-0.454102 0.62988,-0.673828 0.41016,-0.219727 0.94483,-0.219727 0.38818,0 0.70068,0.126953 0.31494,0.124512 0.49317,0.349121 0.17822,0.22461 0.27099,0.585938 l -0.42724,0.117187 q -0.0806,-0.273437 -0.2002,-0.429687 -0.11963,-0.15625 -0.3418,-0.249024 -0.22216,-0.09521 -0.49316,-0.09521 -0.32471,0 -0.56152,0.100097 -0.23682,0.09766 -0.3833,0.258789 -0.14405,0.161133 -0.22461,0.354004 -0.13672,0.332031 -0.13672,0.720215 0,0.478516 0.16357,0.800781 0.16602,0.322266 0.48096,0.478516 0.31494,0.15625 0.66894,0.15625 0.30762,0 0.60059,-0.117188 0.29297,-0.119628 0.44434,-0.253906 v -0.666504 z"
         id="path372" />
      <path
         d="m 568.43719,-95.950714 v -2.592774 h 0.39551 v 0.393067 q 0.15137,-0.275879 0.27832,-0.36377 0.1294,-0.08789 0.28321,-0.08789 0.22216,0 0.45166,0.141601 l -0.15137,0.407715 q -0.16113,-0.09522 -0.32227,-0.09522 -0.14404,0 -0.25879,0.08789 -0.11474,0.08545 -0.16357,0.239258 -0.0732,0.234375 -0.0732,0.512695 v 1.357422 z"
         id="path374" />
      <path
         d="m 570.38953,-99.024445 v -0.505371 h 0.43945 v 0.505371 z m 0,3.073731 v -2.592774 h 0.43945 v 2.592774 z"
         id="path376" />
      <path
         d="m 573.45917,-95.950714 v -0.327149 q -0.24658,0.385743 -0.7251,0.385743 -0.31006,0 -0.57129,-0.170899 -0.25879,-0.170898 -0.40283,-0.476074 -0.1416,-0.307617 -0.1416,-0.705566 0,-0.388184 0.12939,-0.703125 0.1294,-0.317383 0.38819,-0.48584 0.25878,-0.168457 0.57861,-0.168457 0.23437,0 0.41748,0.100097 0.1831,0.09766 0.29785,0.256348 v -1.28418 h 0.43701 v 3.579102 z m -1.38916,-1.293945 q 0,0.498046 0.20996,0.744628 0.20996,0.246583 0.4956,0.246583 0.28809,0 0.48828,-0.234375 0.20264,-0.236817 0.20264,-0.720215 0,-0.532227 -0.20508,-0.78125 -0.20507,-0.249024 -0.50537,-0.249024 -0.29297,0 -0.49072,0.239258 -0.19531,0.239258 -0.19531,0.754395 z"
         id="path378" />
    </g>
    <g
       aria-label="100,000 - m Square ID
Grid Zone Designation"
       transform="scale(1,-1)"
       id="text190608"
       style="font-size:5px;font-family:Arial;-inkscape-font-specification:ArialMT">
      <path
         d="m 529.81628,-87.488716 h -0.43945 v -2.800293 q -0.15869,0.151367 -0.41748,0.302734 -0.25635,0.151367 -0.46143,0.227051 v -0.424805 q 0.36866,-0.173339 0.64454,-0.419922 0.27587,-0.246582 0.39062,-0.478515 h 0.2832 z"
         id="path275" />
      <path
         d="m 530.94098,-89.253853 q 0,-0.634765 0.12939,-1.020508 0.13184,-0.388183 0.38819,-0.598144 0.25879,-0.209961 0.64941,-0.209961 0.28809,0 0.50537,0.117187 0.21729,0.114746 0.35889,0.334473 0.1416,0.217285 0.22217,0.532227 0.0806,0.3125 0.0806,0.844726 0,0.629883 -0.12939,1.018067 -0.1294,0.385742 -0.38818,0.598144 -0.25635,0.209961 -0.64942,0.209961 -0.51758,0 -0.81299,-0.371094 -0.354,-0.446777 -0.354,-1.455078 z m 0.45166,0 q 0,0.881348 0.20508,1.174317 0.20752,0.290527 0.51025,0.290527 0.30274,0 0.50781,-0.292969 0.20752,-0.292969 0.20752,-1.171875 0,-0.883789 -0.20752,-1.174316 -0.20507,-0.290528 -0.51269,-0.290528 -0.30274,0 -0.4834,0.256348 -0.22705,0.327148 -0.22705,1.208496 z"
         id="path277" />
      <path
         d="m 533.72101,-89.253853 q 0,-0.634765 0.12939,-1.020508 0.13184,-0.388183 0.38819,-0.598144 0.25879,-0.209961 0.64941,-0.209961 0.28809,0 0.50537,0.117187 0.21729,0.114746 0.35889,0.334473 0.1416,0.217285 0.22217,0.532227 0.0806,0.3125 0.0806,0.844726 0,0.629883 -0.12939,1.018067 -0.1294,0.385742 -0.38819,0.598144 -0.25634,0.209961 -0.64941,0.209961 -0.51758,0 -0.81299,-0.371094 -0.354,-0.446777 -0.354,-1.455078 z m 0.45166,0 q 0,0.881348 0.20508,1.174317 0.20752,0.290527 0.51025,0.290527 0.30273,0 0.50781,-0.292969 0.20752,-0.292969 0.20752,-1.171875 0,-0.883789 -0.20752,-1.174316 -0.20508,-0.290528 -0.51269,-0.290528 -0.30274,0 -0.4834,0.256348 -0.22705,0.327148 -0.22705,1.208496 z"
         id="path279" />
      <path
         d="m 536.73779,-87.488716 v -0.500488 h 0.50049 v 0.500488 q 0,0.275879 -0.0977,0.444336 -0.0977,0.170898 -0.31005,0.263672 l -0.12207,-0.187989 q 0.13916,-0.06103 0.20507,-0.180664 0.0659,-0.117187 0.0732,-0.339355 z"
         id="path281" />
      <path
         d="m 537.89099,-89.253853 q 0,-0.634765 0.1294,-1.020508 0.13183,-0.388183 0.38818,-0.598144 0.25879,-0.209961 0.64941,-0.209961 0.28809,0 0.50537,0.117187 0.21729,0.114746 0.35889,0.334473 0.1416,0.217285 0.22217,0.532227 0.0806,0.3125 0.0806,0.844726 0,0.629883 -0.1294,1.018067 -0.12939,0.385742 -0.38818,0.598144 -0.25635,0.209961 -0.64942,0.209961 -0.51757,0 -0.81298,-0.371094 -0.35401,-0.446777 -0.35401,-1.455078 z m 0.45166,0 q 0,0.881348 0.20508,1.174317 0.20752,0.290527 0.51025,0.290527 0.30274,0 0.50782,-0.292969 0.20752,-0.292969 0.20752,-1.171875 0,-0.883789 -0.20752,-1.174316 -0.20508,-0.290528 -0.5127,-0.290528 -0.30273,0 -0.4834,0.256348 -0.22705,0.327148 -0.22705,1.208496 z"
         id="path283" />
      <path
         d="m 540.67096,-89.253853 q 0,-0.634765 0.12939,-1.020508 0.13184,-0.388183 0.38819,-0.598144 0.25879,-0.209961 0.64941,-0.209961 0.28809,0 0.50537,0.117187 0.21729,0.114746 0.35889,0.334473 0.1416,0.217285 0.22217,0.532227 0.0806,0.3125 0.0806,0.844726 0,0.629883 -0.12939,1.018067 -0.1294,0.385742 -0.38818,0.598144 -0.25635,0.209961 -0.64942,0.209961 -0.51758,0 -0.81299,-0.371094 -0.354,-0.446777 -0.354,-1.455078 z m 0.45166,0 q 0,0.881348 0.20508,1.174317 0.20752,0.290527 0.51025,0.290527 0.30274,0 0.50781,-0.292969 0.20752,-0.292969 0.20752,-1.171875 0,-0.883789 -0.20752,-1.174316 -0.20507,-0.290528 -0.51269,-0.290528 -0.30274,0 -0.4834,0.256348 -0.22705,0.327148 -0.22705,1.208496 z"
         id="path285" />
      <path
         d="m 543.45099,-89.253853 q 0,-0.634765 0.12939,-1.020508 0.13184,-0.388183 0.38819,-0.598144 0.25879,-0.209961 0.64941,-0.209961 0.28809,0 0.50537,0.117187 0.21729,0.114746 0.35889,0.334473 0.1416,0.217285 0.22217,0.532227 0.0806,0.3125 0.0806,0.844726 0,0.629883 -0.12939,1.018067 -0.1294,0.385742 -0.38818,0.598144 -0.25635,0.209961 -0.64942,0.209961 -0.51758,0 -0.81299,-0.371094 -0.354,-0.446777 -0.354,-1.455078 z m 0.45166,0 q 0,0.881348 0.20508,1.174317 0.20752,0.290527 0.51025,0.290527 0.30274,0 0.50781,-0.292969 0.20752,-0.292969 0.20752,-1.171875 0,-0.883789 -0.20752,-1.174316 -0.20507,-0.290528 -0.51269,-0.290528 -0.30274,0 -0.4834,0.256348 -0.22705,0.327148 -0.22705,1.208496 z"
         id="path287" />
      <path
         d="m 547.57214,-88.562935 v -0.441894 h 1.3501 v 0.441894 z"
         id="path289" />
      <path
         d="m 550.79803,-87.488716 v -2.592774 h 0.39307 v 0.36377 q 0.12207,-0.19043 0.32471,-0.305176 0.20263,-0.117187 0.46142,-0.117187 0.28809,0 0.4712,0.119629 0.18554,0.119628 0.26123,0.334472 0.30761,-0.454101 0.80078,-0.454101 0.38574,0 0.59326,0.214843 0.20752,0.212403 0.20752,0.656739 v 1.779785 h -0.43701 v -1.633301 q 0,-0.263672 -0.0439,-0.378418 -0.0415,-0.117187 -0.15381,-0.187988 -0.1123,-0.0708 -0.26367,-0.0708 -0.27344,0 -0.4541,0.183106 -0.18066,0.180664 -0.18066,0.581054 v 1.506348 h -0.43946 v -1.68457 q 0,-0.292969 -0.10742,-0.439454 -0.10742,-0.146484 -0.35156,-0.146484 -0.18555,0 -0.34424,0.09766 -0.15625,0.09766 -0.22705,0.285645 -0.0708,0.187988 -0.0708,0.541992 v 1.345215 z"
         id="path291" />
      <path
         d="m 556.24811,-88.638618 0.44678,-0.03906 q 0.0317,0.268555 0.14648,0.441895 0.11719,0.170898 0.36133,0.27832 0.24414,0.10498 0.54931,0.10498 0.271,0 0.47852,-0.08057 0.20752,-0.08057 0.30762,-0.219727 0.10254,-0.141601 0.10254,-0.307617 0,-0.168457 -0.0977,-0.292969 -0.0977,-0.126953 -0.32227,-0.212402 -0.14404,-0.05615 -0.6372,-0.17334 -0.49317,-0.119629 -0.69092,-0.224609 -0.25635,-0.134277 -0.3833,-0.332031 -0.12451,-0.200196 -0.12451,-0.446778 0,-0.270996 0.15381,-0.505371 0.1538,-0.236816 0.44921,-0.358887 0.29541,-0.12207 0.65674,-0.12207 0.39795,0 0.70069,0.129395 0.30517,0.126953 0.46875,0.375976 0.16357,0.249024 0.17578,0.563965 l -0.4541,0.03418 q -0.0366,-0.339356 -0.24903,-0.512696 -0.20996,-0.173339 -0.62256,-0.173339 -0.42968,0 -0.62744,0.158691 -0.19531,0.15625 -0.19531,0.378418 0,0.192871 0.13916,0.317383 0.13672,0.124512 0.71289,0.256347 0.57861,0.129395 0.79346,0.227051 0.3125,0.144043 0.46142,0.366211 0.14893,0.219727 0.14893,0.507813 0,0.285644 -0.16358,0.53955 -0.16357,0.251465 -0.47119,0.393067 -0.30517,0.13916 -0.68847,0.13916 -0.48584,0 -0.81543,-0.141602 -0.32715,-0.141601 -0.51514,-0.424804 -0.18555,-0.285645 -0.19531,-0.644531 z"
         id="path293" />
      <path
         d="m 561.34088,-86.495064 v -1.269531 q -0.10254,0.144043 -0.28808,0.239258 -0.18311,0.09521 -0.39063,0.09521 -0.46143,0 -0.7959,-0.368653 -0.33203,-0.368652 -0.33203,-1.010742 0,-0.390625 0.13428,-0.700684 0.13672,-0.310058 0.39306,-0.46875 0.25879,-0.161132 0.56641,-0.161132 0.48096,0 0.75684,0.405273 v -0.34668 h 0.3955 v 3.586426 z m -1.35498,-2.297363 q 0,0.500488 0.20996,0.751953 0.20996,0.249023 0.50293,0.249023 0.28076,0 0.4834,-0.236816 0.20264,-0.239258 0.20264,-0.725098 0,-0.517578 -0.21485,-0.778808 -0.2124,-0.261231 -0.50049,-0.261231 -0.28564,0 -0.48584,0.244141 -0.19775,0.241699 -0.19775,0.756836 z"
         id="path295" />
      <path
         d="m 564.1673,-87.488716 v -0.38086 q -0.30274,0.439454 -0.82276,0.439454 -0.22949,0 -0.42968,-0.08789 -0.19776,-0.08789 -0.29541,-0.219727 -0.0952,-0.134277 -0.13428,-0.327148 -0.0269,-0.129395 -0.0269,-0.410156 v -1.606446 h 0.43946 v 1.437989 q 0,0.344238 0.0268,0.463867 0.0415,0.17334 0.17578,0.273437 0.13428,0.09766 0.33203,0.09766 0.19776,0 0.3711,-0.100098 0.17334,-0.102539 0.24414,-0.275879 0.0732,-0.175781 0.0732,-0.507812 v -1.389161 h 0.43945 v 2.592774 z"
         id="path297" />
      <path
         d="m 566.93994,-87.80854 q -0.24414,0.207519 -0.47119,0.292968 -0.22461,0.08545 -0.4834,0.08545 -0.42724,0 -0.65674,-0.20752 -0.22949,-0.209961 -0.22949,-0.534668 0,-0.19043 0.0855,-0.34668 0.0879,-0.158691 0.22705,-0.253906 0.1416,-0.09521 0.31738,-0.144043 0.1294,-0.03418 0.39063,-0.06592 0.53223,-0.06348 0.78369,-0.151367 0.002,-0.09033 0.002,-0.114746 0,-0.268555 -0.12451,-0.378418 -0.16846,-0.148926 -0.50049,-0.148926 -0.31006,0 -0.45898,0.109863 -0.14649,0.107422 -0.21729,0.383301 l -0.42969,-0.05859 q 0.0586,-0.275879 0.19288,-0.444336 0.13427,-0.170899 0.38818,-0.261231 0.25391,-0.09277 0.58838,-0.09277 0.33203,0 0.53955,0.07813 0.20752,0.07813 0.30517,0.197754 0.0977,0.117187 0.13672,0.297851 0.022,0.112305 0.022,0.405274 v 0.585937 q 0,0.612793 0.0268,0.776367 0.0293,0.161133 0.11231,0.310059 h -0.45899 q -0.0684,-0.136719 -0.0879,-0.319824 z m -0.0366,-0.981446 q -0.23926,0.09766 -0.71777,0.166016 -0.271,0.03906 -0.3833,0.08789 -0.11231,0.04883 -0.17334,0.144043 -0.061,0.09277 -0.061,0.207519 0,0.175781 0.13184,0.292969 0.13427,0.117187 0.39062,0.117187 0.25391,0 0.45166,-0.109863 0.19776,-0.112305 0.29053,-0.305176 0.0708,-0.148926 0.0708,-0.439453 z"
         id="path299" />
      <path
         d="m 568.02319,-87.488716 v -2.592774 h 0.39551 v 0.393067 q 0.15137,-0.275879 0.27832,-0.36377 0.1294,-0.08789 0.2832,-0.08789 0.22217,0 0.45166,0.141601 l -0.15136,0.407715 q -0.16114,-0.09521 -0.32227,-0.09521 -0.14404,0 -0.25879,0.08789 -0.11474,0.08545 -0.16357,0.239258 -0.0732,0.234375 -0.0732,0.512695 v 1.357422 z"
         id="path301" />
      <path
         d="m 571.46796,-88.323677 0.4541,0.05615 q -0.10742,0.397949 -0.39795,0.617676 -0.29053,0.219727 -0.74219,0.219727 -0.56885,0 -0.90332,-0.349121 -0.33203,-0.351563 -0.33203,-0.983887 0,-0.654297 0.33691,-1.015625 0.33692,-0.361328 0.87403,-0.361328 0.52002,0 0.84961,0.354004 0.32959,0.354003 0.32959,0.996093 0,0.03906 -0.002,0.117188 h -1.9336 q 0.0244,0.427246 0.2417,0.654297 0.21729,0.22705 0.54199,0.22705 0.2417,0 0.4126,-0.126953 0.1709,-0.126953 0.271,-0.405273 z m -1.44287,-0.710449 h 1.44775 q -0.0293,-0.327149 -0.16602,-0.490723 -0.20996,-0.253906 -0.54443,-0.253906 -0.30273,0 -0.51025,0.202637 -0.20508,0.202636 -0.22705,0.541992 z"
         id="path303" />
      <path
         d="m 573.99976,-87.488716 v -3.579102 h 0.47363 v 3.579102 z"
         id="path305" />
      <path
         d="m 575.3092,-87.488716 v -3.579102 h 1.23291 q 0.41748,0 0.63721,0.05127 0.30762,0.0708 0.5249,0.256347 0.28321,0.239258 0.42237,0.612793 0.1416,0.371094 0.1416,0.84961 0,0.407715 -0.0952,0.722656 -0.0952,0.314941 -0.24414,0.522461 -0.14892,0.205078 -0.32715,0.324707 -0.17578,0.117188 -0.42724,0.178223 -0.24902,0.06104 -0.57373,0.06104 z m 0.47364,-0.422363 h 0.76416 q 0.354,0 0.5542,-0.06592 0.20263,-0.06592 0.32226,-0.185547 0.16846,-0.168457 0.26123,-0.45166 0.0952,-0.285645 0.0952,-0.690918 0,-0.561524 -0.18555,-0.861817 -0.18311,-0.302734 -0.44678,-0.405273 -0.19043,-0.07324 -0.61279,-0.07324 h -0.75195 z"
         id="path307" />
      <path
         d="m 530.29199,-51.673519 v -0.419922 l 1.51612,-0.0024 v 1.328125 q -0.34913,0.27832 -0.72022,0.419921 -0.37109,0.139161 -0.76172,0.139161 -0.52734,0 -0.95947,-0.22461 -0.42969,-0.227051 -0.64941,-0.654297 -0.21973,-0.427246 -0.21973,-0.954589 0,-0.522461 0.21728,-0.974122 0.21973,-0.454101 0.62989,-0.673828 0.41015,-0.219726 0.94482,-0.219726 0.38818,0 0.70068,0.126953 0.31495,0.124512 0.49317,0.349121 0.17822,0.224609 0.27099,0.585937 l -0.42724,0.117188 q -0.0806,-0.273438 -0.2002,-0.429688 -0.11963,-0.15625 -0.34179,-0.249023 -0.22217,-0.09521 -0.49317,-0.09521 -0.3247,0 -0.56152,0.100098 -0.23682,0.09766 -0.3833,0.258789 -0.14405,0.161133 -0.22461,0.354004 -0.13672,0.332031 -0.13672,0.720215 0,0.478515 0.16357,0.800781 0.16602,0.322266 0.48096,0.478516 0.31494,0.15625 0.66895,0.15625 0.30761,0 0.60058,-0.117188 0.29297,-0.119629 0.44434,-0.253906 v -0.666504 z"
         id="path309" />
      <path
         d="m 532.44617,-50.269711 v -2.592773 h 0.3955 v 0.393066 q 0.15137,-0.275878 0.27833,-0.363769 0.12939,-0.08789 0.2832,-0.08789 0.22217,0 0.45166,0.141602 l -0.15137,0.407715 q -0.16113,-0.09522 -0.32226,-0.09522 -0.14405,0 -0.25879,0.08789 -0.11475,0.08545 -0.16358,0.239258 -0.0732,0.234375 -0.0732,0.512696 v 1.357421 z"
         id="path311" />
      <path
         d="m 534.11853,-53.343441 v -0.505371 h 0.43945 v 0.505371 z m 0,3.07373 v -2.592773 h 0.43945 v 2.592773 z"
         id="path313" />
      <path
         d="m 536.9082,-50.269711 v -0.327148 q -0.24658,0.385742 -0.72509,0.385742 -0.31006,0 -0.57129,-0.170898 -0.25879,-0.170899 -0.40284,-0.476074 -0.1416,-0.307618 -0.1416,-0.705567 0,-0.388183 0.1294,-0.703125 0.12939,-0.317383 0.38818,-0.48584 0.25879,-0.168457 0.57861,-0.168457 0.23438,0 0.41748,0.100098 0.18311,0.09766 0.29786,0.256348 v -1.28418 h 0.43701 v 3.579101 z m -1.38916,-1.293945 q 0,0.498047 0.20996,0.744629 0.20996,0.246582 0.49561,0.246582 0.28809,0 0.48828,-0.234375 0.20264,-0.236816 0.20264,-0.720215 0,-0.532226 -0.20508,-0.78125 -0.20508,-0.249023 -0.50537,-0.249023 -0.29297,0 -0.49072,0.239258 -0.19532,0.239257 -0.19532,0.754394 z"
         id="path315" />
      <path
         d="m 539.16656,-50.269711 v -0.439453 l 1.8335,-2.29248 q 0.19531,-0.244141 0.37109,-0.424805 h -1.99707 v -0.422363 h 2.56348 v 0.422363 l -2.00928,2.48291 -0.21728,0.251465 h 2.28515 v 0.422363 z"
         id="path317" />
      <path
         d="m 542.28748,-51.566097 q 0,-0.720215 0.40039,-1.066895 0.33447,-0.288086 0.81543,-0.288086 0.53466,0 0.87402,0.351563 0.33935,0.349121 0.33935,0.966797 0,0.500488 -0.15136,0.788574 -0.14893,0.285644 -0.43701,0.444336 -0.28565,0.158691 -0.625,0.158691 -0.54444,0 -0.88135,-0.349121 -0.33447,-0.349121 -0.33447,-1.005859 z m 0.45166,0 q 0,0.498047 0.21728,0.74707 0.21729,0.246582 0.54688,0.246582 0.32714,0 0.54443,-0.249023 0.21728,-0.249024 0.21728,-0.759278 0,-0.480957 -0.21972,-0.727539 -0.21729,-0.249023 -0.54199,-0.249023 -0.32959,0 -0.54688,0.246582 -0.21728,0.246582 -0.21728,0.744629 z"
         id="path319" />
      <path
         d="m 545.23108,-50.269711 v -2.592773 h 0.39551 v 0.368652 q 0.28564,-0.427246 0.82519,-0.427246 0.23438,0 0.42969,0.08545 0.19775,0.08301 0.29541,0.219727 0.0977,0.136719 0.13672,0.324707 0.0244,0.12207 0.0244,0.427246 v 1.594238 h -0.43945 v -1.577148 q 0,-0.268555 -0.0513,-0.400391 -0.0513,-0.134277 -0.18311,-0.212402 -0.12939,-0.08057 -0.30517,-0.08057 -0.28076,0 -0.48584,0.178222 -0.20264,0.178223 -0.20264,0.67627 v 1.416015 z"
         id="path321" />
      <path
         d="m 549.78595,-51.104671 0.4541,0.05615 q -0.10742,0.397949 -0.39795,0.617676 -0.29053,0.219726 -0.74219,0.219726 -0.56884,0 -0.90332,-0.349121 -0.33203,-0.351562 -0.33203,-0.983887 0,-0.654296 0.33692,-1.015625 0.33691,-0.361328 0.87402,-0.361328 0.52002,0 0.84961,0.354004 0.32959,0.354004 0.32959,0.996094 0,0.03906 -0.002,0.117187 h -1.9336 q 0.0244,0.427247 0.2417,0.654297 0.21729,0.227051 0.542,0.227051 0.2417,0 0.41259,-0.126953 0.1709,-0.126953 0.271,-0.405273 z m -1.44287,-0.71045 h 1.44775 q -0.0293,-0.327148 -0.16601,-0.490722 -0.20996,-0.253907 -0.54444,-0.253907 -0.30273,0 -0.51025,0.202637 -0.20508,0.202637 -0.22705,0.541992 z"
         id="path323" />
      <path
         d="m 552.23718,-50.269711 v -3.579101 h 1.23291 q 0.41748,0 0.63721,0.05127 0.30762,0.0708 0.5249,0.256348 0.28321,0.239258 0.42237,0.612793 0.1416,0.371094 0.1416,0.849609 0,0.407715 -0.0952,0.722657 -0.0952,0.314941 -0.24414,0.522461 -0.14892,0.205078 -0.32715,0.324707 -0.17578,0.117187 -0.42724,0.178222 -0.24903,0.06103 -0.57373,0.06103 z m 0.47364,-0.422363 h 0.76416 q 0.354,0 0.55419,-0.06592 0.20264,-0.06592 0.32227,-0.185547 0.16846,-0.168457 0.26123,-0.45166 0.0952,-0.285644 0.0952,-0.690918 0,-0.561523 -0.18555,-0.861816 -0.18311,-0.302735 -0.44678,-0.405274 -0.19043,-0.07324 -0.61279,-0.07324 h -0.75195 z"
         id="path325" />
      <path
         d="m 557.56598,-51.104671 0.4541,0.05615 q -0.10742,0.397949 -0.39795,0.617676 -0.29053,0.219726 -0.74219,0.219726 -0.56884,0 -0.90332,-0.349121 -0.33203,-0.351562 -0.33203,-0.983887 0,-0.654296 0.33692,-1.015625 0.33691,-0.361328 0.87402,-0.361328 0.52002,0 0.84961,0.354004 0.32959,0.354004 0.32959,0.996094 0,0.03906 -0.002,0.117187 h -1.9336 q 0.0244,0.427247 0.2417,0.654297 0.21729,0.227051 0.542,0.227051 0.24169,0 0.41259,-0.126953 0.1709,-0.126953 0.271,-0.405273 z m -1.44287,-0.71045 h 1.44775 q -0.0293,-0.327148 -0.16601,-0.490722 -0.20996,-0.253907 -0.54444,-0.253907 -0.30273,0 -0.51025,0.202637 -0.20508,0.202637 -0.22705,0.541992 z"
         id="path327" />
      <path
         d="m 558.39526,-51.043636 0.43457,-0.06836 q 0.0366,0.261231 0.20264,0.400391 0.16846,0.13916 0.46875,0.13916 0.30274,0 0.44922,-0.12207 0.14648,-0.124512 0.14648,-0.290528 0,-0.148925 -0.12939,-0.234375 -0.0903,-0.05859 -0.44922,-0.148925 -0.4834,-0.122071 -0.67139,-0.209961 -0.18554,-0.09033 -0.2832,-0.246582 -0.0952,-0.158692 -0.0952,-0.349121 0,-0.17334 0.0781,-0.319825 0.0806,-0.148925 0.21729,-0.246582 0.10254,-0.07568 0.27832,-0.126953 0.17822,-0.05371 0.38086,-0.05371 0.30517,0 0.53466,0.08789 0.23194,0.08789 0.3418,0.239258 0.10986,0.148925 0.15137,0.40039 l -0.42969,0.05859 q -0.0293,-0.200195 -0.1709,-0.3125 -0.13916,-0.112305 -0.39551,-0.112305 -0.30273,0 -0.43212,0.100098 -0.1294,0.100098 -0.1294,0.234375 0,0.08545 0.0537,0.153809 0.0537,0.0708 0.16846,0.117187 0.0659,0.02441 0.38818,0.112305 0.46631,0.124512 0.64942,0.205078 0.18554,0.07813 0.29052,0.229492 0.10498,0.151367 0.10498,0.375977 0,0.219726 -0.12939,0.415039 -0.12695,0.192871 -0.36865,0.300293 -0.2417,0.10498 -0.54688,0.10498 -0.50537,0 -0.77148,-0.209961 -0.26367,-0.209961 -0.33692,-0.622558 z"
         id="path329" />
      <path
         d="m 561.07349,-53.343441 v -0.505371 h 0.43945 v 0.505371 z m 0,3.07373 v -2.592773 h 0.43945 v 2.592773 z"
         id="path331" />
      <path
         d="m 562.10046,-50.054867 0.42725,0.06348 q 0.0269,0.197754 0.14893,0.288086 0.16357,0.12207 0.44677,0.12207 0.30518,0 0.47119,-0.12207 0.16602,-0.122071 0.22461,-0.341797 0.0342,-0.134278 0.0317,-0.563965 -0.28808,0.339355 -0.71777,0.339355 -0.53467,0 -0.82764,-0.385742 -0.29297,-0.385742 -0.29297,-0.925293 0,-0.371093 0.13428,-0.683593 0.13428,-0.314942 0.38818,-0.48584 0.25635,-0.170899 0.60059,-0.170899 0.45898,0 0.75684,0.371094 v -0.3125 h 0.40527 v 2.241211 q 0,0.605469 -0.12451,0.856934 -0.12207,0.253906 -0.39063,0.40039 -0.26611,0.146485 -0.65674,0.146485 -0.46386,0 -0.74951,-0.209961 -0.28564,-0.20752 -0.27588,-0.627442 z m 0.36377,-1.557617 q 0,0.510254 0.20264,0.744629 0.20264,0.234375 0.50781,0.234375 0.30274,0 0.50782,-0.231934 0.20507,-0.234375 0.20507,-0.732422 0,-0.476074 -0.2124,-0.717773 -0.20996,-0.241699 -0.50781,-0.241699 -0.29297,0 -0.49805,0.239258 -0.20508,0.236816 -0.20508,0.705566 z"
         id="path333" />
      <path
         d="m 564.96106,-50.269711 v -2.592773 h 0.39551 v 0.368652 q 0.28564,-0.427246 0.82519,-0.427246 0.23438,0 0.42969,0.08545 0.19775,0.08301 0.29541,0.219727 0.0977,0.136719 0.13672,0.324707 0.0244,0.12207 0.0244,0.427246 v 1.594238 h -0.43945 v -1.577148 q 0,-0.268555 -0.0513,-0.400391 -0.0513,-0.134277 -0.1831,-0.212402 -0.1294,-0.08057 -0.30518,-0.08057 -0.28076,0 -0.48584,0.178222 -0.20264,0.178223 -0.20264,0.67627 v 1.416015 z"
         id="path335" />
      <path
         d="m 569.43298,-50.589535 q -0.24414,0.20752 -0.47119,0.292969 -0.22461,0.08545 -0.4834,0.08545 -0.42724,0 -0.65673,-0.207519 -0.2295,-0.209961 -0.2295,-0.534668 0,-0.19043 0.0854,-0.34668 0.0879,-0.158691 0.22705,-0.253906 0.1416,-0.09521 0.31739,-0.144043 0.12939,-0.03418 0.39062,-0.06592 0.53223,-0.06348 0.78369,-0.151367 0.002,-0.09033 0.002,-0.114746 0,-0.268555 -0.12451,-0.378418 -0.16846,-0.148926 -0.50049,-0.148926 -0.31005,0 -0.45898,0.109863 -0.14649,0.107422 -0.21729,0.383301 l -0.42968,-0.05859 q 0.0586,-0.275879 0.19287,-0.444336 0.13428,-0.170898 0.38818,-0.26123 0.25391,-0.09277 0.58838,-0.09277 0.33203,0 0.53955,0.07813 0.20752,0.07813 0.30518,0.197754 0.0977,0.117188 0.13672,0.297852 0.022,0.112304 0.022,0.405273 v 0.585938 q 0,0.612793 0.0269,0.776367 0.0293,0.161133 0.11231,0.310058 h -0.45899 q -0.0684,-0.136718 -0.0879,-0.319824 z m -0.0366,-0.981445 q -0.23926,0.09766 -0.71777,0.166016 -0.271,0.03906 -0.3833,0.08789 -0.11231,0.04883 -0.17334,0.144043 -0.061,0.09277 -0.061,0.20752 0,0.175781 0.13184,0.292968 0.13428,0.117188 0.39062,0.117188 0.25391,0 0.45166,-0.109863 0.19776,-0.112305 0.29053,-0.305176 0.0708,-0.148926 0.0708,-0.439453 z"
         id="path337" />
      <path
         d="m 571.48053,-50.662777 0.0635,0.388184 q -0.18555,0.03906 -0.33203,0.03906 -0.23926,0 -0.3711,-0.07568 -0.13183,-0.07568 -0.18555,-0.197754 -0.0537,-0.124512 -0.0537,-0.52002 v -1.491699 h -0.32226 v -0.341797 h 0.32226 v -0.64209 l 0.43702,-0.263672 v 0.905762 h 0.44189 v 0.341797 h -0.44189 v 1.516113 q 0,0.187988 0.022,0.241699 0.0244,0.05371 0.0757,0.08545 0.0537,0.03174 0.15137,0.03174 0.0732,0 0.19287,-0.01709 z"
         id="path339" />
      <path
         d="m 571.91351,-53.343441 v -0.505371 h 0.43946 v 0.505371 z m 0,3.07373 v -2.592773 h 0.43946 v 2.592773 z"
         id="path341" />
      <path
         d="m 572.85748,-51.566097 q 0,-0.720215 0.40039,-1.066895 0.33448,-0.288086 0.81543,-0.288086 0.53467,0 0.87403,0.351563 0.33935,0.349121 0.33935,0.966797 0,0.500488 -0.15137,0.788574 -0.14892,0.285644 -0.43701,0.444336 -0.28564,0.158691 -0.625,0.158691 -0.54443,0 -0.88134,-0.349121 -0.33448,-0.349121 -0.33448,-1.005859 z m 0.45166,0 q 0,0.498047 0.21729,0.74707 0.21728,0.246582 0.54687,0.246582 0.32715,0 0.54444,-0.249023 0.21728,-0.249024 0.21728,-0.759278 0,-0.480957 -0.21972,-0.727539 -0.21729,-0.249023 -0.542,-0.249023 -0.32959,0 -0.54687,0.246582 -0.21729,0.246582 -0.21729,0.744629 z"
         id="path343" />
      <path
         d="m 575.80109,-50.269711 v -2.592773 h 0.3955 v 0.368652 q 0.28565,-0.427246 0.8252,-0.427246 0.23437,0 0.42969,0.08545 0.19775,0.08301 0.29541,0.219727 0.0977,0.136719 0.13672,0.324707 0.0244,0.12207 0.0244,0.427246 v 1.594238 h -0.43945 v -1.577148 q 0,-0.268555 -0.0513,-0.400391 -0.0513,-0.134277 -0.18311,-0.212402 -0.12939,-0.08057 -0.30517,-0.08057 -0.28077,0 -0.48584,0.178222 -0.20264,0.178223 -0.20264,0.67627 v 1.416015 z"
         id="path345" />
    </g>
    <g
       aria-label="QU"
       transform="scale(1,-1)"
       id="text190612"
       style="font-size:6px;font-family:Arial;-inkscape-font-specification:ArialMT">
      <path
         d="m 552.46222,-70.126678 q 0.39551,0.27246 0.72949,0.398437 l -0.16699,0.395508 q -0.46289,-0.166992 -0.92285,-0.527344 -0.47754,0.266602 -1.05469,0.266602 -0.58301,0 -1.05762,-0.28125 -0.47461,-0.28125 -0.73242,-0.791016 -0.25488,-0.509766 -0.25488,-1.148437 0,-0.635743 0.25781,-1.157227 0.25781,-0.521484 0.73242,-0.793945 0.47754,-0.272461 1.06641,-0.272461 0.59473,0 1.07226,0.284179 0.47754,0.28125 0.72657,0.791016 0.25195,0.506836 0.25195,1.145508 0,0.530273 -0.16113,0.955078 -0.16114,0.421875 -0.48633,0.735352 z m -1.25098,-0.726563 q 0.49219,0.137695 0.81153,0.410156 0.50097,-0.457031 0.50097,-1.374023 0,-0.521485 -0.17871,-0.911133 -0.17578,-0.389648 -0.51855,-0.603516 -0.33985,-0.216796 -0.76465,-0.216796 -0.63574,0 -1.05469,0.436523 -0.41894,0.433594 -0.41894,1.297852 0,0.83789 0.41308,1.286132 0.41602,0.448243 1.06055,0.448243 0.30469,0 0.57422,-0.114258 -0.2666,-0.172852 -0.5625,-0.246094 z"
         id="path270" />
      <path
         d="m 556.69373,-73.961639 h 0.56835 v 2.481445 q 0,0.647461 -0.14648,1.02832 -0.14648,0.38086 -0.53027,0.621094 -0.38086,0.237305 -1.00196,0.237305 -0.60351,0 -0.9873,-0.208008 -0.38379,-0.208008 -0.54785,-0.600586 -0.16406,-0.395508 -0.16406,-1.078125 v -2.481445 h 0.56835 v 2.478515 q 0,0.559571 0.10254,0.826172 0.10547,0.263672 0.35743,0.407227 0.25488,0.143554 0.62109,0.143554 0.62695,0 0.89355,-0.284179 0.26661,-0.28418 0.26661,-1.092774 z"
         id="path272" />
    </g>
    <g
       aria-label="14R"
       transform="scale(1,-1)"
       id="text190616"
       style="font-size:5px;font-family:Arial;-inkscape-font-specification:ArialMT">
      <path
         d="m 550.52124,-40.065716 h -0.43945 v -2.800293 q -0.15869,0.151367 -0.41748,0.302735 -0.25635,0.151367 -0.46143,0.22705 v -0.424804 q 0.36865,-0.17334 0.64453,-0.419922 0.27588,-0.246582 0.39063,-0.478516 h 0.2832 z"
         id="path263" />
      <path
         d="m 553.05469,-40.065716 v -0.856933 h -1.55274 v -0.402832 l 1.6333,-2.319336 h 0.35889 v 2.319336 h 0.4834 v 0.402832 h -0.4834 v 0.856933 z m 0,-1.259765 v -1.61377 l -1.12061,1.61377 z"
         id="path265" />
      <path
         d="m 554.61151,-40.065716 v -3.579101 h 1.58692 q 0.47851,0 0.72753,0.09766 0.24903,0.09522 0.39795,0.339355 0.14893,0.244141 0.14893,0.539551 0,0.38086 -0.24658,0.64209 -0.24658,0.26123 -0.76172,0.332031 0.18799,0.09033 0.28564,0.178223 0.20752,0.19043 0.39307,0.476074 l 0.62256,0.974121 h -0.59571 l -0.47363,-0.744629 q -0.20752,-0.322265 -0.34179,-0.493164 -0.13428,-0.170898 -0.2417,-0.239258 -0.10498,-0.06836 -0.21485,-0.09521 -0.0806,-0.01709 -0.26367,-0.01709 h -0.54932 v 1.589355 z m 0.47363,-1.999512 h 1.01807 q 0.32471,0 0.50781,-0.06592 0.18311,-0.06836 0.27832,-0.214844 0.0952,-0.148926 0.0952,-0.322266 0,-0.253906 -0.18555,-0.41748 -0.1831,-0.163575 -0.58105,-0.163575 h -1.13282 z"
         id="path267" />
    </g>
  </g>
</svg>
